<?xml version="1.0" encoding="UTF-8"?>
<svg version="1.1" xmlns="http://www.w3.org/2000/svg" width="1536" height="1024">
<path d="M0 0 C6.98890969 4.83008891 12.79310437 11.13741588 14.54681396 19.65618896 C15.05149073 23.37992185 15.13719854 27.0257082 15.12597656 30.77441406 C15.1278447 31.52975937 15.12971283 32.28510468 15.13163757 33.06333923 C15.13562433 34.69529125 15.13771482 36.32724879 15.13809967 37.95920563 C15.14153981 41.44170106 15.16293321 44.92401388 15.18333054 48.40644455 C15.22121041 54.878573 15.25261895 61.35050166 15.25048828 67.82275391 C15.24969769 72.33628068 15.27320849 76.84913045 15.3123703 81.36248016 C15.32277562 83.07349345 15.32439496 84.78458539 15.31671906 86.4956131 C15.17610238 100.03300873 15.17610238 100.03300873 21 112 C27.51697404 117.7757307 36.00385484 121.08377156 43.8125 124.75 C45.03872066 125.33137954 46.26463421 125.91340729 47.49023438 126.49609375 C49.72866857 127.55894739 51.96849676 128.61887414 54.21020508 129.67480469 C56.48820012 130.75688722 58.75008475 131.86102474 61 133 C61.96093685 149.00989437 62.11862496 164.96373068 62 181 C59.11876176 180.3622301 56.61698885 179.45085347 53.953125 178.1875 C53.19 177.83429688 52.426875 177.48109375 51.640625 177.1171875 C50.05968796 176.37838359 48.48149381 175.63367872 46.90625 174.8828125 C40.5587419 171.9646628 34.24801982 169.68923518 27.3125 172.125 C22.49448566 173.95252268 19.28548013 176.50796129 16.88705444 181.15756226 C15.74198113 184.82678418 15.72371953 188.30033522 15.74462891 192.10400391 C15.74100845 192.90636475 15.737388 193.70872559 15.73365784 194.53540039 C15.72677976 196.2732187 15.72425542 198.01105853 15.72560501 199.74888992 C15.72657356 202.50806391 15.71358705 205.26685181 15.69662476 208.02597046 C15.65046682 215.86933365 15.6257734 223.71265796 15.61914062 231.55615234 C15.61409945 236.36019895 15.58971442 241.16384418 15.55381393 245.96775436 C15.54407252 247.78959101 15.54165279 249.61148328 15.54698563 251.43333817 C15.58630165 265.5321143 14.61599461 276.27345288 4.37890625 286.8984375 C-3.93956122 294.24710006 -13.5134515 294.67799736 -24.09863281 294.18359375 C-28.26141985 293.78163999 -31.50821321 292.19504439 -35 290 C-35.62132812 289.66097656 -36.24265625 289.32195312 -36.8828125 288.97265625 C-42.68159415 285.44569165 -46.65741917 279.60314072 -48.55154961 273.10897011 C-49.94142998 267.26233255 -50.28552815 261.75504846 -50.26069641 255.75978088 C-50.26452196 254.76684349 -50.26834751 253.77390611 -50.27228898 252.7508797 C-50.2825575 249.44397242 -50.27863854 246.13724076 -50.2746582 242.83032227 C-50.27900804 240.45116008 -50.2841921 238.07199929 -50.29014587 235.69284058 C-50.30212989 229.91346651 -50.30469095 224.13414654 -50.30234561 218.35476155 C-50.30055858 213.65492324 -50.30232033 208.955099 -50.30657005 204.25526237 C-50.30716524 203.58495623 -50.30776043 202.91465009 -50.30837366 202.22403164 C-50.30958547 200.86207176 -50.31079961 199.50011187 -50.31201603 198.138152 C-50.32287799 185.38234372 -50.32073532 172.62656191 -50.31463119 159.87075215 C-50.30946194 148.21566614 -50.32072005 136.56066371 -50.33972941 124.90559424 C-50.35912654 112.9203416 -50.3673606 100.93512847 -50.36360615 88.94986004 C-50.36169712 82.22815285 -50.36415268 75.5065168 -50.37832069 68.78482246 C-50.39090493 62.46382077 -50.38894909 56.14298631 -50.37590981 49.82198715 C-50.3735459 47.50570939 -50.37627201 45.18941983 -50.38453293 42.87315559 C-50.39501743 39.70431161 -50.38688568 36.53602699 -50.3742218 33.36720276 C-50.38159609 32.45696981 -50.38897037 31.54673687 -50.39656812 30.60892111 C-50.33210573 22.90885569 -49.09801364 14.74241445 -44.0625 8.625 C-43.53527344 7.98304688 -43.00804687 7.34109375 -42.46484375 6.6796875 C-41.98144531 6.12539063 -41.49804688 5.57109375 -41 5 C-40.38125 4.2575 -39.7625 3.515 -39.125 2.75 C-28.22942883 -6.22282332 -12.18289786 -6.66398882 0 0 Z " fill="#0456FE" transform="translate(214,342)"/>
<path d="M0 0 C2.30078125 1.51171875 2.30078125 1.51171875 4 3 C4 3.66 4 4.32 4 5 C4.99 5.33 5.98 5.66 7 6 C8.31640625 7.63671875 8.31640625 7.63671875 9.5625 9.6875 C9.97628906 10.35136719 10.39007813 11.01523437 10.81640625 11.69921875 C13.99801905 17.88393802 14.29152348 23.32056624 14.27415466 30.13174438 C14.27939134 31.14929223 14.28462802 32.16684008 14.29002339 33.21522272 C14.30502014 36.6235021 14.30572848 40.0316313 14.30639648 43.43994141 C14.31401828 45.88438165 14.32244581 48.32881949 14.33161926 50.77325439 C14.35357159 57.41399988 14.36238644 64.05468501 14.36744571 70.69545794 C14.37070718 74.84614441 14.37723244 78.99682165 14.3844471 83.1475029 C14.40400986 94.65129865 14.42041554 106.15508585 14.42332363 117.65889931 C14.42360499 118.76240932 14.42360499 118.76240932 14.42389202 119.88821246 C14.42425826 121.37945453 14.42462196 122.8706966 14.42498314 124.36193867 C14.42525735 125.47224436 14.42525735 125.47224436 14.42553711 126.60498047 C14.42571766 127.34609343 14.42589821 128.08720639 14.42608423 128.85077731 C14.42962341 140.85070938 14.45663117 152.85046172 14.494035 164.8503315 C14.53217548 177.18580436 14.55148153 189.52118818 14.55178314 201.85672128 C14.55236648 208.77645415 14.56077811 215.69597269 14.58978081 222.61565018 C14.6169512 229.1278933 14.61815074 235.63982452 14.60212517 242.15210724 C14.60031278 244.53689117 14.60698223 246.92169961 14.62294388 249.30643082 C14.78732811 275.46986948 14.78732811 275.46986948 7.05385494 284.19593239 C-0.65532952 291.64783218 -9.2491576 294.3125 -19.74047852 294.3125 C-29.43067878 294.12093814 -36.09399273 290.8370687 -43.08984375 284.125 C-51.91708156 274.30492358 -51.29326063 260.3945326 -51.15032959 247.91854668 C-51.12433809 245.62519004 -51.11165629 243.33207012 -51.10205078 241.03858948 C-51.07942068 236.17145208 -51.0409438 231.30451333 -51 226.4375 C-50.95248969 220.78544963 -50.91181415 215.13351457 -50.88812256 209.48130989 C-50.87533295 207.24189161 -50.85033041 205.00283694 -50.82470703 202.76353455 C-50.61879372 189.52552085 -50.61879372 189.52552085 -54.5 177.0625 C-59.49040401 172.94541669 -65.21719123 170.57315405 -71.75 170.875 C-78.58769628 171.91199659 -84.7796685 175.12247035 -91 178 C-93.31 178.99 -95.62 179.98 -98 181 C-98 165.49 -98 149.98 -98 134 C-88.69752572 129.34876286 -79.60535194 124.80605224 -70.05664062 120.8046875 C-65.82204107 118.97962411 -62.56407436 116.98879705 -59 114 C-58.34 114 -57.68 114 -57 114 C-56.31225595 112.67741528 -55.65288627 111.34013497 -55 110 C-54.484375 108.948125 -53.96875 107.89625 -53.4375 106.8125 C-50.03048266 98.63919242 -50.88479799 89.26496245 -50.95540047 80.57556343 C-50.97301561 78.33316006 -50.98316023 76.09083008 -50.99131775 73.84837341 C-51.01557467 67.47884194 -51.05122409 61.10941012 -51.09594727 54.73999023 C-51.12290949 50.82629478 -51.13983283 46.91265548 -51.15081596 42.9988842 C-51.15697107 41.51947893 -51.16690614 40.04008383 -51.18089485 38.56073189 C-51.30003469 25.85244059 -51.20313943 14.8448445 -42.24609375 5.08984375 C-30.60326219 -5.98848689 -14.20978474 -7.31278079 0 0 Z " fill="#0256FE" transform="translate(435,342)"/>
<path d="M0 0 C0.33 0.66 0.66 1.32 1 2 C2.134375 1.814375 3.26875 1.62875 4.4375 1.4375 C6.2009375 1.2209375 6.2009375 1.2209375 8 1 C9 2 9 2 9.12025452 4.13233948 C9.1169236 5.54131752 9.1169236 5.54131752 9.11352539 6.97875977 C9.11344986 8.03978409 9.11337433 9.10080841 9.11329651 10.19398499 C9.10813522 11.348134 9.10297394 12.50228302 9.09765625 13.69140625 C9.0962413 14.86638168 9.09482635 16.04135712 9.09336853 17.25193787 C9.08774992 21.02215064 9.07519426 24.79230504 9.0625 28.5625 C9.0574874 31.11132727 9.05292408 33.66015547 9.04882812 36.20898438 C9.03777444 42.47267633 9.02101821 48.73633399 9 55 C11.7781904 56.3890952 14.08534745 56.16331551 17.19384766 56.20532227 C19.14564438 56.2352401 19.14564438 56.2352401 21.13687134 56.26576233 C22.5626005 56.28274673 23.98833093 56.29962553 25.4140625 56.31640625 C26.86852613 56.33697521 28.32298377 56.35797166 29.7774353 56.37937927 C33.60786088 56.43460604 37.43834045 56.4840126 41.26885986 56.53222656 C45.8636059 56.59126327 50.45825313 56.65749456 55.05291748 56.72252655 C62.03521803 56.82054371 69.01758161 56.90939435 76 57 C75.67 38.85 75.34 20.7 75 2 C77.72842061 0.63578969 79.60953318 1.12192789 82.625 1.4375 C83.62789062 1.53933594 84.63078125 1.64117187 85.6640625 1.74609375 C86.43492187 1.82988281 87.20578125 1.91367187 88 2 C88.33 1.34 88.66 0.68 89 0 C89.495 0.495 89.495 0.495 90 1 C92.18639453 1.07258946 94.37500389 1.08373783 96.5625 1.0625 C97.76003906 1.05347656 98.95757813 1.04445313 100.19140625 1.03515625 C101.58166016 1.01775391 101.58166016 1.01775391 103 1 C104.31488772 3.62977544 104.1229086 5.57144889 104.12025452 8.51748657 C104.12231651 10.27596169 104.12231651 10.27596169 104.12442017 12.06996155 C104.11902725 14.0088047 104.11902725 14.0088047 104.11352539 15.98681641 C104.11324343 17.3565521 104.11340142 18.72628795 104.1139679 20.09602356 C104.11425553 23.8210061 104.10836428 27.54595663 104.10139394 31.27093172 C104.09515476 35.16136292 104.09455615 39.0517948 104.09336853 42.94223022 C104.09025688 50.31223352 104.08204573 57.68222202 104.07201904 65.05221879 C104.06085274 73.44146265 104.05534615 81.8307072 104.05032361 90.21995664 C104.03986299 107.47997965 104.02226676 124.73998826 104 142 C95.64669061 146.1766547 85.33928382 143 76 143 C76 122.87 76 102.74 76 82 C71.05 82.495 71.05 82.495 66 83 C63.87845721 83.07578381 61.75521478 83.11828523 59.63232422 83.11352539 C57.89825317 83.11334412 57.89825317 83.11334412 56.12915039 83.11315918 C54.94957764 83.10804321 53.77000488 83.10292725 52.5546875 83.09765625 C51.44424072 83.09664917 50.33379395 83.09564209 49.18969727 83.09460449 C45.08478751 83.0894155 40.9798926 83.07545461 36.875 83.0625 C23.076875 83.0315625 23.076875 83.0315625 9 83 C9 102.47 9 121.94 9 142 C-0.1760558 145.05868527 -10.32758791 143 -20 143 C-20.33 96.47 -20.66 49.94 -21 2 C-17.26723014 0.75574338 -13.81877683 0.93136557 -9.9375 1 C-4.81812237 1.3156353 -4.81812237 1.3156353 0 0 Z " fill="#0A2250" transform="translate(570,421)"/>
<path d="M0 0 C8.91 0 17.82 0 27 0 C27 18.15 27 36.3 27 55 C48.45 55 69.9 55 92 55 C91.67 36.85 91.34 18.7 91 0 C100.57 0 110.14 0 120 0 C120 46.2 120 92.4 120 140 C106.635 140.495 106.635 140.495 93 141 C92 140 92 140 91.87974548 137.60191345 C91.88196609 136.53824051 91.88418671 135.47456757 91.88647461 134.37866211 C91.88659546 133.1606189 91.88671631 131.94257568 91.88684082 130.68762207 C91.89195679 129.39723022 91.89707275 128.10683838 91.90234375 126.77734375 C91.90335083 125.59885864 91.90435791 124.42037354 91.90539551 123.20617676 C91.91064684 118.78327468 91.92460795 114.36038641 91.9375 109.9375 C91.958125 100.058125 91.97875 90.17875 92 80 C70.55 80 49.1 80 27 80 C27 100.13 27 120.26 27 141 C18.42 141 9.84 141 1 141 C0 140 0 140 -0.12304783 137.69052029 C-0.12212604 136.65903394 -0.12120424 135.62754759 -0.12025452 134.56480408 C-0.12162918 133.38544785 -0.12300385 132.20609161 -0.12442017 130.99099731 C-0.12082489 129.6854892 -0.11722961 128.37998108 -0.11352539 127.03491211 C-0.11324352 125.65547182 -0.11340125 124.27603139 -0.1139679 122.89659119 C-0.11425588 119.14055882 -0.10835905 115.38455811 -0.10139394 111.62853312 C-0.09516051 107.70739955 -0.09455661 103.78626533 -0.09336853 99.86512756 C-0.09025518 92.43488389 -0.08204175 85.00465486 -0.07201904 77.57441765 C-0.06085801 69.11748362 -0.05534748 60.6605489 -0.05032361 52.20360935 C-0.03985914 34.80239623 -0.02151361 17.4012032 0 0 Z " fill="#0056FE" transform="translate(992,423)"/>
<path d="M0 0 C0.33 0.66 0.66 1.32 1 2 C8.92 2 16.84 2 25 2 C25.495 28.235 25.495 28.235 26 55 C28.31 52.69 30.62 50.38 33 48 C41.71935807 41.83436978 52.25919971 40.26318667 62.6875 41.625 C76.70583318 44.31759701 88.15765956 50.958572 96.27734375 62.9296875 C104.68365381 77.91236257 105.66586626 93.8048037 102.03515625 110.3203125 C98.77623223 121.90486507 92.45775297 131.75271003 82.25 138.3125 C69.59833227 145.19424048 55.62864891 147.50308963 41.5 143.9375 C36.10451887 141.98574335 28.64122624 138.28245248 26 133 C25.67 135.97 25.34 138.94 25 142 C21.8615007 143.04616643 19.94961697 143.04169366 16.67578125 142.87890625 C15.64775391 142.83056641 14.61972656 142.78222656 13.56054688 142.73242188 C12.48869141 142.67634766 11.41683594 142.62027344 10.3125 142.5625 C9.22904297 142.51029297 8.14558594 142.45808594 7.02929688 142.40429688 C4.35257409 142.27458784 1.67622112 142.13962067 -1 142 C-1.02333585 123.78081074 -1.04098256 105.56162535 -1.05181217 87.34242439 C-1.05697367 78.88338853 -1.06401359 70.42436194 -1.07543945 61.96533203 C-1.08539075 54.59448486 -1.0918545 47.22364441 -1.09408849 39.85279071 C-1.09539484 35.94814846 -1.09847591 32.04352542 -1.10573006 28.13888931 C-1.11249729 24.46672484 -1.11461552 20.79458757 -1.11310768 17.12241745 C-1.11351569 15.1260824 -1.11890724 13.12975033 -1.12442017 11.13342285 C-1.1230455 9.95269196 -1.12167084 8.77196106 -1.12025452 7.55545044 C-1.12117631 6.52488588 -1.1220981 5.49432133 -1.12304783 4.43252754 C-1 2 -1 2 0 0 Z M30 75 C25.21514021 82.1841843 24.23215107 90.80757893 25.4765625 99.22265625 C27.52420017 108.3020167 31.26090322 114.70915252 39 120 C46.11193779 123.00889676 54.51344373 123.2908903 61.75 120.5 C67.69441731 117.47452596 72.08063769 112.50605473 74.9375 106.5 C77.52534749 98.3828386 77.29853231 86.84103728 74.11328125 78.9609375 C70.730455 73.00241548 65.90043587 67.48593862 59.18359375 65.44921875 C47.52996477 63.05178166 37.82484918 66.09945093 30 75 Z M24 130 C25 132 25 132 25 132 Z " fill="#0057FE" transform="translate(1249,421)"/>
<path d="M0 0 C11.15680455 8.3382434 18.01081937 19.64490669 20.28515625 33.45703125 C21.17963183 39.78282046 21.53515625 45.91410069 21.53515625 52.31640625 C-3.54484375 52.31640625 -28.62484375 52.31640625 -54.46484375 52.31640625 C-50.75884299 61.58140815 -49.1711836 65.07819569 -41.46484375 70.31640625 C-38.0409521 71.87830432 -38.0409521 71.87830432 -34.46484375 72.31640625 C-33.82417969 72.45820312 -33.18351563 72.6 -32.5234375 72.74609375 C-23.56673666 74.36258856 -13.8222652 72.27564842 -6.27734375 67.25390625 C-4.99478557 66.29014838 -3.72218329 65.3128409 -2.46484375 64.31640625 C-1.47484375 63.65640625 -0.48484375 62.99640625 0.53515625 62.31640625 C1.79972656 63.59837891 1.79972656 63.59837891 3.08984375 64.90625 C4.19648218 66.02226672 5.30326027 67.13814497 6.41015625 68.25390625 C7.24353516 69.09985352 7.24353516 69.09985352 8.09375 69.96289062 C11.02731335 73.01500653 11.02731335 73.01500653 14.53515625 75.31640625 C14.21972068 78.50396571 13.82231297 80.01010574 11.6015625 82.37890625 C-2.4565871 93.2569752 -17.50055134 98.04673312 -35.46484375 96.31640625 C-50.29892076 94.01268428 -63.05357402 88.40327663 -72.46484375 76.31640625 C-77.76546229 68.03707294 -81.76814159 59.20957697 -82.46484375 49.31640625 C-82.53316406 48.52363281 -82.60148438 47.73085938 -82.671875 46.9140625 C-83.28757782 32.84411296 -78.3187809 18.58570739 -69.77734375 7.44140625 C-51.735307 -11.3109469 -21.48465354 -14.67493768 0 0 Z M-48.77734375 20.62890625 C-52.02267667 24.74084033 -54.46484375 28.96093298 -54.46484375 34.31640625 C-38.29484375 33.98640625 -22.12484375 33.65640625 -5.46484375 33.31640625 C-8.49086628 24.23833866 -10.66939101 19.51337474 -18.46484375 14.31640625 C-29.22804096 10.58223579 -41.05395346 12.30564098 -48.77734375 20.62890625 Z " fill="#09214F" transform="translate(903.46484375,470.68359375)"/>
<path d="M0 0 C8.91 0 17.82 0 27 0 C27.73449352 3.67246762 28.12020484 6.34898885 28.09765625 9.98291016 C28.09435303 10.94806549 28.0910498 11.91322083 28.08764648 12.90762329 C28.07934814 13.94099823 28.0710498 14.97437317 28.0625 16.0390625 C28.05871338 17.1157016 28.05492676 18.1923407 28.05102539 19.30160522 C28.03473882 23.89529131 28.0067387 28.48888741 27.97949219 33.08251953 C27.96126764 36.44302957 27.94925658 39.80352456 27.9375 43.1640625 C27.92920166 44.18529205 27.92090332 45.20652161 27.91235352 46.25869751 C27.45142848 59.73993773 27.45142848 59.73993773 32 72 C36.44792814 76.32771387 40.63797738 77.76379774 46.75 78.375 C52.4847813 78.19888388 58.19536769 76.26854875 62.67578125 72.64453125 C69.21367264 65.45092214 68.33324282 56.05549868 68.4140625 46.97265625 C68.43279754 45.61501418 68.45237266 44.25738346 68.4727478 42.89976501 C68.52382867 39.34726696 68.56358202 35.79473125 68.60089111 32.24206543 C68.64108262 28.60854971 68.69210542 24.97518735 68.7421875 21.34179688 C68.83866146 14.22797719 68.92315641 7.11406104 69 0 C73.31248609 -0.02886537 77.62494762 -0.04675255 81.9375 -0.0625 C83.16919922 -0.07087891 84.40089844 -0.07925781 85.66992188 -0.08789062 C86.83974609 -0.09111328 88.00957031 -0.09433594 89.21484375 -0.09765625 C90.84087524 -0.10551147 90.84087524 -0.10551147 92.49975586 -0.11352539 C95 0 95 0 96 1 C96.09530981 4.04402422 96.12551639 7.06531708 96.11352539 10.10961914 C96.11367142 11.06561508 96.11381744 12.02161102 96.1139679 13.00657654 C96.11326835 16.18279245 96.10547403 19.35895052 96.09765625 22.53515625 C96.09579222 24.73091093 96.09436825 26.92666602 96.09336853 29.12242126 C96.08954219 34.91420633 96.07971091 40.7059665 96.06866455 46.4977417 C96.05845293 52.40278791 96.05387145 58.30783813 96.04882812 64.21289062 C96.03808875 75.80860472 96.02101093 87.40430029 96 99 C92.79529925 100.60235037 89.32851939 100.14283273 85.8125 100.125 C85.06935547 100.12886719 84.32621094 100.13273438 83.56054688 100.13671875 C78.93892085 100.12861774 74.55890888 99.76082453 70 99 C70 95.7 70 92.4 70 89 C69.54625 89.70125 69.0925 90.4025 68.625 91.125 C62.10916371 98.26139213 53.43274544 101.84673413 43.8515625 102.30078125 C42.44283651 102.32018247 41.03381444 102.32377825 39.625 102.3125 C38.88185547 102.30686035 38.13871094 102.3012207 37.37304688 102.29541016 C25.54963686 102.03513021 16.42692507 97.86747752 8.1875 89.3125 C1.58306178 81.32894475 -0.13228365 71.16860593 -0.11352539 61.07666016 C-0.11367142 60.4125412 -0.11381744 59.74842224 -0.1139679 59.06417847 C-0.11327634 56.88910551 -0.10551973 54.71412032 -0.09765625 52.5390625 C-0.09578938 51.02306159 -0.09436675 49.50706008 -0.09336853 47.99105835 C-0.08956456 44.01595369 -0.07975253 40.04088602 -0.06866455 36.0657959 C-0.0584047 32.00350444 -0.05386114 27.94120696 -0.04882812 23.87890625 C-0.03812822 15.91925203 -0.02054874 7.95963489 0 0 Z " fill="#0057FE" transform="translate(1130,464)"/>
<path d="M0 0 C7.1524744 5.91522594 11.84292454 13.07121174 13.55859375 22.2734375 C14.46981437 33.72878242 12.50644012 42.74900745 5.5703125 52.01171875 C-1.51827196 59.98121468 -10.70626295 63.13260946 -21.13867188 63.82861328 C-31.53934765 64.18239459 -39.82779431 61.12367269 -47.796875 54.23828125 C-51.25438072 50.53839369 -53.11735457 47.20853923 -54.44140625 42.2734375 C-55.10140625 41.9434375 -55.76140625 41.6134375 -56.44140625 41.2734375 C-59.00336543 29.99416269 -58.23267056 19.34965243 -52.44140625 9.2734375 C-46.46043331 0.54876581 -38.91171218 -4.02197103 -28.65625 -6.28515625 C-18.43338571 -7.6887816 -8.47694665 -5.99489667 0 0 Z " fill="#09214E" transform="translate(328.44140625,393.7265625)"/>
<path d="M0 0 C1.61648438 0.01353516 1.61648438 0.01353516 3.265625 0.02734375 C4.08546875 0.03894531 4.9053125 0.05054688 5.75 0.0625 C7.12365621 2.80981243 6.7628639 4.87917064 6.62890625 7.9453125 C6.58056641 9.11191406 6.53222656 10.27851563 6.48242188 11.48046875 C6.42634766 12.70378906 6.37027344 13.92710937 6.3125 15.1875 C6.26029297 16.41855469 6.20808594 17.64960938 6.15429688 18.91796875 C6.0243256 21.96638588 5.88934981 25.0144995 5.75 28.0625 C4.615625 28.02769531 3.48125 27.99289062 2.3125 27.95703125 C-10.73505957 27.47122947 -10.73505957 27.47122947 -22.0625 33.375 C-28.0981554 40.79023378 -28.46610184 47.78451315 -28.8125 56.9375 C-28.85640869 58.01781494 -28.90031738 59.09812988 -28.94555664 60.21118164 C-29.1765454 66.58258398 -29.27666187 72.94185759 -29.2421875 79.31640625 C-29.23725533 80.34163391 -29.23725533 80.34163391 -29.23222351 81.38757324 C-29.2129619 84.75423326 -29.17782462 88.11945188 -29.12524414 91.48583984 C-29.11356201 92.70609863 -29.10187988 93.92635742 -29.08984375 95.18359375 C-29.07300537 96.2708374 -29.05616699 97.35808105 -29.03881836 98.47827148 C-29.25 101.0625 -29.25 101.0625 -31.25 103.0625 C-31.25 102.4025 -31.25 101.7425 -31.25 101.0625 C-39.83 101.3925 -48.41 101.7225 -57.25 102.0625 C-57.25 69.0625 -57.25 36.0625 -57.25 2.0625 C-48.67 2.0625 -40.09 2.0625 -31.25 2.0625 C-30.25 3.0625 -30.25 3.0625 -30.15234375 6.22265625 C-30.16394531 7.51042969 -30.17554688 8.79820312 -30.1875 10.125 C-30.19652344 11.41535156 -30.20554687 12.70570313 -30.21484375 14.03515625 C-30.22644531 15.03417969 -30.23804688 16.03320312 -30.25 17.0625 C-29.755 16.216875 -29.26 15.37125 -28.75 14.5 C-24.07952192 7.56006426 -18.17926083 3.44127825 -10.25 1.0625 C-9.33734375 0.78212891 -9.33734375 0.78212891 -8.40625 0.49609375 C-5.57420027 -0.07339451 -2.88600294 -0.0313696 0 0 Z " fill="#092250" transform="translate(806.25,461.9375)"/>
<path d="M0 0 C8.91 0 17.82 0 27 0 C28.125 7.875 28.125 7.875 28.12025452 11.3344574 C28.12162918 12.11818222 28.12300385 12.90190704 28.12442017 13.7093811 C28.12082489 14.54448212 28.11722961 15.37958313 28.11352539 16.23999023 C28.11367142 17.13834091 28.11381744 18.03669159 28.1139679 18.96226501 C28.1132751 21.91106642 28.10551247 24.85980347 28.09765625 27.80859375 C28.09578982 29.86125148 28.09436698 31.91390966 28.09336853 33.96656799 C28.08956107 39.35384361 28.07974597 44.74109202 28.06866455 50.12835693 C28.05841229 55.6317915 28.05386275 61.1352305 28.04882812 66.63867188 C28.03812205 77.42579317 28.02106698 88.21289432 28 99 C19.13997743 101.95334086 9.33928382 100 0 100 C0 67 0 34 0 0 Z " fill="#0A2251" transform="translate(700,464)"/>
<path d="M0 0 C1.40668945 0.00966797 1.40668945 0.00966797 2.84179688 0.01953125 C4.30649414 0.04466797 4.30649414 0.04466797 5.80078125 0.0703125 C6.78884766 0.07933594 7.77691406 0.08835937 8.79492188 0.09765625 C11.2346189 0.1212282 13.67382822 0.15413228 16.11328125 0.1953125 C17.11328125 3.1953125 17.11328125 3.1953125 16.3359375 5.0703125 C15.76166016 6.1221875 15.76166016 6.1221875 15.17578125 7.1953125 C10.99338063 16.09858126 13.33726265 26.08234313 14.93359375 35.43359375 C15.30758778 37.74018638 15.68127683 40.04682848 16.0546875 42.35351562 C16.64675604 45.94659771 17.24348399 49.53881373 17.84619141 53.13012695 C18.42937917 56.62521352 18.994933 60.12281308 19.55859375 63.62109375 C19.74390656 64.69305496 19.92921936 65.76501617 20.12014771 66.86946106 C21.62332764 76.29377321 21.62332764 76.29377321 19.11328125 81.1953125 C16.984375 83.20703125 16.984375 83.20703125 14.55078125 84.8828125 C10.89828149 87.29807824 10.89828149 87.29807824 9.11328125 91.1953125 C6.90234375 91.46875 6.90234375 91.46875 4.11328125 91.1953125 C1.76171875 89.296875 1.76171875 89.296875 -0.51171875 86.8203125 C-2.93331286 84.21689221 -4.91612634 82.17570744 -7.88671875 80.1953125 C-7.88671875 79.5353125 -7.88671875 78.8753125 -7.88671875 78.1953125 C-8.54671875 78.1953125 -9.20671875 78.1953125 -9.88671875 78.1953125 C-9.16674278 68.55159771 -7.80843866 59.01422065 -6.44921875 49.4453125 C-6.22956003 47.88805716 -6.01015767 46.33076563 -5.79101562 44.7734375 C-5.68309692 44.0076387 -5.57517822 43.2418399 -5.46398926 42.45283508 C-5.24937286 40.92340969 -5.03622458 39.39377753 -4.82458496 37.86393738 C-4.31897109 34.21527636 -3.79366116 30.57263542 -3.21484375 26.93481445 C-3.11259995 26.26146057 -3.01035614 25.58810669 -2.90501404 24.89434814 C-2.62905377 23.07869338 -2.34051935 21.26496214 -2.05102539 19.45141602 C-1.78158245 14.11180164 -3.71522424 9.96003805 -5.88671875 5.1953125 C-5.88671875 4.5353125 -5.88671875 3.8753125 -5.88671875 3.1953125 C-6.54671875 2.8653125 -7.20671875 2.5353125 -7.88671875 2.1953125 C-4.63281887 0.02604591 -3.75275918 -0.04548799 0 0 Z " fill="#09204E" transform="translate(300.88671875,470.8046875)"/>
<path d="M0 0 C0.99 0.495 0.99 0.495 2 1 C4.2072923 1.07092842 6.41667452 1.08415025 8.625 1.0625 C10.40777344 1.04896484 10.40777344 1.04896484 12.2265625 1.03515625 C13.59941406 1.01775391 13.59941406 1.01775391 15 1 C16.31488772 3.62977544 16.1229086 5.57144889 16.12025452 8.51748657 C16.12231651 10.27596169 16.12231651 10.27596169 16.12442017 12.06996155 C16.11902725 14.0088047 16.11902725 14.0088047 16.11352539 15.98681641 C16.11324343 17.3565521 16.11340142 18.72628795 16.1139679 20.09602356 C16.11425553 23.8210061 16.10836428 27.54595663 16.10139394 31.27093172 C16.09515476 35.16136292 16.09455615 39.0517948 16.09336853 42.94223022 C16.09025688 50.31223352 16.08204573 57.68222202 16.07201904 65.05221879 C16.06085274 73.44146265 16.05534615 81.8307072 16.05032361 90.21995664 C16.03986299 107.47997965 16.02226676 124.73998826 16 142 C7.64669061 146.1766547 -2.66071618 143 -12 143 C-12 122.87 -12 102.74 -12 82 C-16.95 82.495 -16.95 82.495 -22 83 C-24.12154279 83.07578381 -26.24478522 83.11828523 -28.36767578 83.11352539 C-30.10174683 83.11334412 -30.10174683 83.11334412 -31.87084961 83.11315918 C-33.05042236 83.10804321 -34.22999512 83.10292725 -35.4453125 83.09765625 C-36.55575928 83.09664917 -37.66620605 83.09564209 -38.81030273 83.09460449 C-42.91521249 83.0894155 -47.0201074 83.07545461 -51.125 83.0625 C-64.923125 83.0315625 -64.923125 83.0315625 -79 83 C-79 102.47 -79 121.94 -79 142 C-88.1760558 145.05868527 -98.32758791 143 -108 143 C-108.33 96.47 -108.66 49.94 -109 2 C-105.17189179 0.72396393 -101.76524893 1.13716013 -97.8125 1.4375 C-97.06291016 1.48970703 -96.31332031 1.54191406 -95.54101562 1.59570312 C-93.69362918 1.72513784 -91.84675629 1.86186518 -90 2 C-90 2.33 -90 2.66 -90 3 C-95.28 3 -100.56 3 -106 3 C-106 48.54 -106 94.08 -106 141 C-98.08 140.67 -90.16 140.34 -82 140 C-81.67 120.2 -81.34 100.4 -81 80 C-57.9 80 -34.8 80 -11 80 C-11 99.8 -11 119.6 -11 140 C-3.08 140 4.84 140 13 140 C13 94.79 13 49.58 13 3 C5.08 3 -2.84 3 -11 3 C-11 21.48 -11 39.96 -11 59 C-33.77 59 -56.54 59 -80 59 C-80 58.67 -80 58.34 -80 58 C-57.56 58 -35.12 58 -12 58 C-12.33 39.52 -12.66 21.04 -13 2 C-10.27157939 0.63578969 -8.39046682 1.12192789 -5.375 1.4375 C-4.37210938 1.53933594 -3.36921875 1.64117187 -2.3359375 1.74609375 C-1.56507813 1.82988281 -0.79421875 1.91367187 0 2 C0 1.34 0 0.68 0 0 Z " fill="#030D28" transform="translate(658,421)"/>
<path d="M0 0 C3.61267422 3.18259396 6.25752933 5.77736526 6.97265625 10.7109375 C7.15301966 15.9336344 6.75770407 19.96713628 3.625 24.3125 C-2.41594147 29.56797627 -7.52376712 30.73874831 -15.4921875 30.65234375 C-18.375 30.3125 -18.375 30.3125 -21.375 28.25 C-22.035 27.280625 -22.695 26.31125 -23.375 25.3125 C-24.5196875 23.70375 -24.5196875 23.70375 -25.6875 22.0625 C-27.91692709 17.87663689 -28.17966005 13.9516115 -27.375 9.3125 C-25.5187787 4.00454134 -22.27760829 0.96807949 -17.375 -1.6875 C-11.53057595 -3.59118169 -5.41336325 -2.70668162 0 0 Z " fill="#092250" transform="translate(724.375,421.6875)"/>
<path d="M0 0 C1.37365621 2.74731243 1.0128639 4.81667064 0.87890625 7.8828125 C0.83056641 9.04941406 0.78222656 10.21601563 0.73242188 11.41796875 C0.67634766 12.64128906 0.62027344 13.86460937 0.5625 15.125 C0.51029297 16.35605469 0.45808594 17.58710938 0.40429688 18.85546875 C0.2743256 21.90388588 0.13934981 24.9519995 0 28 C-1.134375 27.96519531 -2.26875 27.93039062 -3.4375 27.89453125 C-16.48505957 27.40872947 -16.48505957 27.40872947 -27.8125 33.3125 C-33.8481554 40.72773378 -34.21610184 47.72201315 -34.5625 56.875 C-34.60640869 57.95531494 -34.65031738 59.03562988 -34.69555664 60.14868164 C-34.9265454 66.52008398 -35.02666187 72.87935759 -34.9921875 79.25390625 C-34.98725533 80.27913391 -34.98725533 80.27913391 -34.98222351 81.32507324 C-34.9629619 84.69173326 -34.92782462 88.05695188 -34.87524414 91.42333984 C-34.86356201 92.64359863 -34.85187988 93.86385742 -34.83984375 95.12109375 C-34.82300537 96.2083374 -34.80616699 97.29558105 -34.78881836 98.41577148 C-35 101 -35 101 -37 103 C-37 102.34 -37 101.68 -37 101 C-45.58 101.33 -54.16 101.66 -63 102 C-63 69 -63 36 -63 2 C-44 2 -44 2 -38 3 C-38.33 3.66 -38.66 4.32 -39 5 C-40.60405891 5.02792366 -42.20827494 5.0467943 -43.8125 5.0625 C-45.15248047 5.07990234 -45.15248047 5.07990234 -46.51953125 5.09765625 C-51.35829749 4.9618884 -56.17920906 4.43825372 -61 4 C-61 35.35 -61 66.7 -61 99 C-53.41 99 -45.82 99 -38 99 C-38.02320313 95.56722656 -38.04640625 92.13445312 -38.0703125 88.59765625 C-38.08593598 85.25154998 -38.09806538 81.90544786 -38.10986328 78.55932617 C-38.11988476 76.24420333 -38.13350557 73.92909302 -38.15087891 71.61401367 C-38.17529702 68.27519626 -38.18652195 64.93654706 -38.1953125 61.59765625 C-38.20563507 60.57229263 -38.21595764 59.54692902 -38.22659302 58.49049377 C-38.22808031 48.83850976 -37.09764946 40.71918506 -31 33 C-24.68295453 26.68295453 -18.81867559 24.8362658 -10.125 24.75 C-4.33890215 24.83054893 -4.33890215 24.83054893 -2 26 C-2 18.08 -2 10.16 -2 2 C-14.40200462 3.32878621 -22.04991645 5.53743734 -32 13 C-29.59737279 7.43791801 -25.10346592 4.40072539 -19.671875 1.94921875 C-13.1363326 -0.2749739 -6.84581275 -0.31758925 0 0 Z " fill="#050F28" transform="translate(812,462)"/>
<path d="M0 0 C0.80179688 0.05220703 1.60359375 0.10441406 2.4296875 0.15820312 C4.41179103 0.28798371 6.39344499 0.42459735 8.375 0.5625 C8.375 0.8925 8.375 1.2225 8.375 1.5625 C3.095 1.5625 -2.185 1.5625 -7.625 1.5625 C-7.625 47.1025 -7.625 92.6425 -7.625 139.5625 C0.295 139.2325 8.215 138.9025 16.375 138.5625 C16.705 118.7625 17.035 98.9625 17.375 78.5625 C51.53 79.0575 51.53 79.0575 86.375 79.5625 C86.375 79.8925 86.375 80.2225 86.375 80.5625 C78.54303173 81.54590396 70.81633872 81.69436172 62.9296875 81.66015625 C61.81924072 81.65914917 60.70879395 81.65814209 59.56469727 81.65710449 C55.45978751 81.6519155 51.3548926 81.63795461 47.25 81.625 C33.451875 81.5940625 33.451875 81.5940625 19.375 81.5625 C19.375 101.0325 19.375 120.5025 19.375 140.5625 C10.1989442 143.62118527 0.04741209 141.5625 -9.625 141.5625 C-9.955 95.0325 -10.285 48.5025 -10.625 0.5625 C-7.2967269 -1.10163655 -3.62766027 -0.25617406 0 0 Z " fill="#020D28" transform="translate(559.625,422.4375)"/>
<path d="M0 0 C-2.7982237 1.46603975 -5.58651507 2.57580597 -8.5625 3.625 C-19.4553258 8.00458976 -26.98668607 15.01408953 -33 25 C-33.52851562 25.82242187 -34.05703125 26.64484375 -34.6015625 27.4921875 C-38.41556952 34.6727482 -38.45356639 41.6858277 -38.5 49.6875 C-38.50644531 50.75693848 -38.51289062 51.82637695 -38.51953125 52.92822266 C-38.41377251 59.48017969 -37.53513521 64.95389752 -35 71 C-34.61199219 71.93070313 -34.22398437 72.86140625 -33.82421875 73.8203125 C-27.87656586 85.87912763 -19.59483238 92.91633011 -6.75 97.375 C7.66511971 101.71065297 24.9022454 101.3831883 38.78125 95.20703125 C43.66552376 92.54991753 48.29915844 89.17617901 52 85 C52.23484569 82.85583883 52.23484569 82.85583883 50.390625 81.37890625 C49.33101562 80.47978516 49.33101562 80.47978516 48.25 79.5625 C47.20585938 78.66724609 47.20585938 78.66724609 46.140625 77.75390625 C45.43421875 77.17511719 44.7278125 76.59632813 44 76 C43.3090625 75.41476562 42.618125 74.82953125 41.90625 74.2265625 C41.2771875 73.82179688 40.648125 73.41703125 40 73 C37.26601865 73.70957237 37.26601865 73.70957237 35 75 C36.65 73.02 38.3 71.04 40 69 C45.03163018 73.29785078 50.02718443 77.63425542 55 82 C54.68456443 85.18755946 54.28715672 86.69369949 52.06640625 89.0625 C38.00825665 99.94056895 22.96429241 104.73032687 5 103 C-9.83407701 100.69627803 -22.58873027 95.08687038 -32 83 C-37.30061854 74.72066669 -41.30329784 65.89317072 -42 56 C-42.06832031 55.20722656 -42.13664063 54.41445313 -42.20703125 53.59765625 C-42.82273407 39.52770671 -37.85393715 25.26930114 -29.3125 14.125 C-21.99771418 6.39838978 -10.9456327 -0.82092245 0 0 Z " fill="#05102C" transform="translate(863,464)"/>
<path d="M0 0 C20 0 20 0 26 1 C26 32.68 26 64.36 26 97 C25.67 97 25.34 97 25 97 C25 65.65 25 34.3 25 2 C24.01 2.495 24.01 2.495 23 3 C21.5753972 3.09504525 20.14651833 3.1307286 18.71875 3.1328125 C17.45611328 3.13474609 17.45611328 3.13474609 16.16796875 3.13671875 C14.84732422 3.13091797 14.84732422 3.13091797 13.5 3.125 C12.61957031 3.12886719 11.73914063 3.13273437 10.83203125 3.13671875 C9.99027344 3.13542969 9.14851562 3.13414062 8.28125 3.1328125 C7.50845703 3.13168457 6.73566406 3.13055664 5.93945312 3.12939453 C4 3 4 3 2 2 C2 33.68 2 65.36 2 98 C9.59 98 17.18 98 25 98 C25 98.33 25 98.66 25 99 C12.625 99.495 12.625 99.495 0 100 C0 67 0 34 0 0 Z " fill="#02081B" transform="translate(700,464)"/>
<path d="M0 0 C0.33 0.66 0.66 1.32 1 2 C2.134375 1.814375 3.26875 1.62875 4.4375 1.4375 C6.2009375 1.2209375 6.2009375 1.2209375 8 1 C9 2 9 2 9.12025452 4.13233948 C9.1169236 5.54131752 9.1169236 5.54131752 9.11352539 6.97875977 C9.11344986 8.03978409 9.11337433 9.10080841 9.11329651 10.19398499 C9.10813522 11.348134 9.10297394 12.50228302 9.09765625 13.69140625 C9.0962413 14.86638168 9.09482635 16.04135712 9.09336853 17.25193787 C9.08774992 21.02215064 9.07519426 24.79230504 9.0625 28.5625 C9.0574874 31.11132727 9.05292408 33.66015547 9.04882812 36.20898438 C9.03777444 42.47267633 9.02101821 48.73633399 9 55 C11.7781904 56.3890952 14.08534745 56.16331551 17.19384766 56.20532227 C19.14564438 56.2352401 19.14564438 56.2352401 21.13687134 56.26576233 C22.5626005 56.28274673 23.98833093 56.29962553 25.4140625 56.31640625 C26.86852613 56.33697521 28.32298377 56.35797166 29.7774353 56.37937927 C33.60786088 56.43460604 37.43834045 56.4840126 41.26885986 56.53222656 C45.1766847 56.5824372 49.084431 56.63812554 52.9921875 56.69335938 C60.66139185 56.80094833 68.33066145 56.90239162 76 57 C76 57.33 76 57.66 76 58 C41.35 58.495 41.35 58.495 6 59 C6 40.85 6 22.7 6 4 C-1.92 4 -9.84 4 -18 4 C-18 3.67 -18 3.34 -18 3 C-12.72 3 -7.44 3 -2 3 C-2 2.34 -2 1.68 -2 1 C-1.34 0.67 -0.68 0.34 0 0 Z " fill="#08193F" transform="translate(570,421)"/>
<path d="M0 0 C34.155 0.495 34.155 0.495 69 1 C69 1.33 69 1.66 69 2 C61.16803173 2.98340396 53.44133872 3.13186172 45.5546875 3.09765625 C44.44424072 3.09664917 43.33379395 3.09564209 42.18969727 3.09460449 C38.08478751 3.0894155 33.9798926 3.07545461 29.875 3.0625 C16.076875 3.0315625 16.076875 3.0315625 2 3 C2 22.47 2 41.94 2 62 C-1.24798743 63.08266248 -3.35896827 63.03436186 -6.76171875 62.87890625 C-7.87998047 62.83056641 -8.99824219 62.78222656 -10.15039062 62.73242188 C-11.31763672 62.67634766 -12.48488281 62.62027344 -13.6875 62.5625 C-14.86634766 62.51029297 -16.04519531 62.45808594 -17.25976562 62.40429688 C-20.17344094 62.27453806 -23.08678078 62.13956868 -26 62 C-25.67 61.34 -25.34 60.68 -25 60 C-17.08 60 -9.16 60 -1 60 C-0.67 40.2 -0.34 20.4 0 0 Z " fill="#071433" transform="translate(577,501)"/>
<path d="M0 0 C0.66 0 1.32 0 2 0 C2.17046632 1.8538212 2.33617396 3.70808019 2.5 5.5625 C2.5928125 6.59503906 2.685625 7.62757813 2.78125 8.69140625 C3.00799275 12.12089028 3 15.56302852 3 19 C-22.41 19 -47.82 19 -74 19 C-74.33 19.66 -74.66 20.32 -75 21 C-74.67 19.68 -74.34 18.36 -74 17 C-49.58 17 -25.16 17 0 17 C0 11.39 0 5.78 0 0 Z " fill="#02091F" transform="translate(922,504)"/>
<path d="M0 0 C4.23242531 3.72856515 6.50483252 6.44990402 6.875 12.1875 C6.7925 13.21875 6.71 14.25 6.625 15.3125 C6.295 15.3125 5.965 15.3125 5.625 15.3125 C5.47804688 14.72082031 5.33109375 14.12914062 5.1796875 13.51953125 C3.4956921 7.58683483 1.96619043 4.5373697 -3.375 1.3125 C-9.57593575 -0.31397495 -14.6781383 0.25701229 -20.375 3.3125 C-23.60759015 6.62393382 -24.62386805 9.29212498 -24.875 13.8125 C-24.67290029 18.25120838 -23.28673051 20.90161569 -20.375 24.3125 C-16.1915309 27.1014794 -12.34954916 27.36542074 -7.375 27.3125 C-0.79280379 25.93396457 2.08361818 21.62457274 5.625 16.3125 C5.625 22.29904709 5.625 22.29904709 2.8828125 25.078125 C-3.93598903 30.22344777 -9.85968157 31.31633835 -18.375 30.3125 C-21.375 28.25 -21.375 28.25 -23.375 25.3125 C-24.5196875 23.70375 -24.5196875 23.70375 -25.6875 22.0625 C-27.91692709 17.87663689 -28.17966005 13.9516115 -27.375 9.3125 C-25.5187787 4.00454134 -22.27760829 0.96807949 -17.375 -1.6875 C-11.53057595 -3.59118169 -5.41336325 -2.70668162 0 0 Z " fill="#040E29" transform="translate(724.375,421.6875)"/>
<path d="M0 0 C22.77 0 45.54 0 69 0 C69.33 19.8 69.66 39.6 70 60 C78.25 60 86.5 60 95 60 C94.67 60.99 94.34 61.98 94 63 C85.42 63 76.84 63 68 63 C68 42.54 68 22.08 68 1 C45.56 1 23.12 1 0 1 C0 0.67 0 0.34 0 0 Z " fill="#00020C" transform="translate(578,501)"/>
<path d="M0 0 C0.33 0 0.66 0 1 0 C1 4.62 1 9.24 1 14 C1.66 14 2.32 14 3 14 C3.04935824 19.23273331 3.08569949 24.46533176 3.10986328 29.69824219 C3.11993431 31.47919067 3.13359185 33.26012257 3.15087891 35.04101562 C3.17507913 37.59769783 3.18647184 40.15416185 3.1953125 42.7109375 C3.20563507 43.50994476 3.21595764 44.30895203 3.22659302 45.13217163 C3.22699226 47.0895722 3.12241069 49.04643077 3 51 C2.34 51.66 1.68 52.32 1 53 C1 52.34 1 51.68 1 51 C-6.92 50.67 -14.84 50.34 -23 50 C-23 49.67 -23 49.34 -23 49 C-15.41 49 -7.82 49 0 49 C0 32.83 0 16.66 0 0 Z " fill="#061435" transform="translate(774,512)"/>
<path d="M0 0 C1.40668945 0.00966797 1.40668945 0.00966797 2.84179688 0.01953125 C4.30649414 0.04466797 4.30649414 0.04466797 5.80078125 0.0703125 C6.78884766 0.07933594 7.77691406 0.08835937 8.79492188 0.09765625 C11.2346189 0.1212282 13.67382822 0.15413228 16.11328125 0.1953125 C17.11328125 3.1953125 17.11328125 3.1953125 16.15234375 5.39453125 C15.68570312 6.21566406 15.2190625 7.03679687 14.73828125 7.8828125 C12.30165547 12.47932816 11.40043406 16.02656199 11.11328125 21.1953125 C10.78328125 21.1953125 10.45328125 21.1953125 10.11328125 21.1953125 C9.63202072 13.73577428 11.04102653 9.01187766 14.11328125 2.1953125 C8.17328125 2.1953125 2.23328125 2.1953125 -3.88671875 2.1953125 C-3.24734375 3.6803125 -2.60796875 5.1653125 -1.94921875 6.6953125 C-0.11022859 11.30260458 0.93610563 15.23439519 1.11328125 20.1953125 C0.45328125 20.8553125 -0.20671875 21.5153125 -0.88671875 22.1953125 C-1.08007812 21.32648438 -1.2734375 20.45765625 -1.47265625 19.5625 C-1.73304688 18.41007812 -1.9934375 17.25765625 -2.26171875 16.0703125 C-2.64457031 14.36488281 -2.64457031 14.36488281 -3.03515625 12.625 C-3.83666742 9.39689538 -4.68138987 6.29604404 -5.88671875 3.1953125 C-6.54671875 2.8653125 -7.20671875 2.5353125 -7.88671875 2.1953125 C-4.63281887 0.02604591 -3.75275918 -0.04548799 0 0 Z " fill="#07153A" transform="translate(300.88671875,470.8046875)"/>
<path d="M0 0 C2.29809683 1.41019578 4.06003555 2.59989685 5.75 4.6875 C3.16611483 4.24454826 0.92300016 3.76669021 -1.46875 2.671875 C-8.01136813 0.35622926 -17.49351515 0.38409395 -23.875 3.3125 C-29.60980373 6.86261659 -32.66780432 12.04642455 -35.35546875 18.05078125 C-36.25 19.6875 -36.25 19.6875 -38.25 20.6875 C-37.40554389 12.83290136 -33.09088364 6.82759084 -27.0234375 1.8671875 C-19.26899269 -2.67136715 -8.38409945 -3.32871889 0 0 Z " fill="#061331" transform="translate(885.25,483.3125)"/>
<path d="M0 0 C0.66 0 1.32 0 2 0 C2.495 1.175625 2.99 2.35125 3.5 3.5625 C6.49963549 9.52997272 10.96430016 13.72500607 17.125 16.3125 C23.0623171 17.36589497 29.02099029 18.22048972 35 19 C35 19.33 35 19.66 35 20 C23.88992183 20.42130914 16.04658937 20.03623617 7 13 C3.26883833 9.16548205 0 5.5018346 0 0 Z " fill="#04112E" transform="translate(848,526)"/>
<path d="M0 0 C1.48030281 1.94776685 2.92986345 3.89500771 4.2890625 5.9296875 C10.85101232 15.48480741 18.83226904 18.84581839 30 21 C30 21.33 30 21.66 30 22 C21.71694179 22.82830582 15.92590206 20.55955219 9 16 C5.19305734 12.54995822 1.95793506 8.79227916 0 4 C0 2.68 0 1.36 0 0 Z " fill="#050F2C" transform="translate(274,434)"/>
<path d="M0 0 C0.99 0.33 1.98 0.66 3 1 C3.96093685 17.00989437 4.11862496 32.96373068 4 49 C2.68 48.67 1.36 48.34 0 48 C0.99 47.505 0.99 47.505 2 47 C1.88184174 40.78852302 1.75759956 34.57720905 1.62768555 28.3659668 C1.58433936 26.2523938 1.54266406 24.13878586 1.50268555 22.02514648 C1.44497551 18.98931336 1.38128299 15.95365611 1.31640625 12.91796875 C1.29969376 11.97100632 1.28298126 11.02404388 1.26576233 10.04838562 C1.24581711 9.16769913 1.22587189 8.28701263 1.20532227 7.37963867 C1.18977798 6.60464523 1.1742337 5.82965179 1.15821838 5.03117371 C1.06644623 2.79667507 1.06644623 2.79667507 0 0 Z " fill="#0A4EED" transform="translate(272,474)"/>
<path d="M0 0 C-3 2 -3 2 -6.625 3.125 C-14.91563852 6.17864218 -20.35046216 12.59418721 -24.22265625 20.3125 C-24.47917969 20.869375 -24.73570312 21.42625 -25 22 C-25.94042104 19.49032217 -26.16806629 18.39532115 -25.1015625 15.88671875 C-19.08190258 6.92092898 -11.36567263 -0.52863594 0 0 Z " fill="#06112D" transform="translate(300,389)"/>
<path d="M0 0 C0.66 0 1.32 0 2 0 C2.5099538 10.99233751 1.38079072 21.27946179 -6 30 C-6.66 30 -7.32 30 -8 30 C-6.95525802 27.26759789 -5.83162764 24.67027079 -4.5 22.0625 C-1.89787044 16.74981882 -0.73646304 12.02889628 -0.375 6.125 C-0.30023438 4.97257812 -0.22546875 3.82015625 -0.1484375 2.6328125 C-0.09945313 1.76398438 -0.05046875 0.89515625 0 0 Z " fill="#071536" transform="translate(340,416)"/>
<path d="M0 0 C5.96708062 1.06317695 10.17549801 5.47544929 13.62890625 10.25390625 C16.19655439 14.57721125 17.66095101 17.84458211 17 23 C15.28024315 20.42036472 14.08825997 18.05405945 12.8125 15.25 C10.30915444 10.16159731 7.19033069 6.74349448 3 3 C1.99427604 2.00575691 0.99245315 1.00749032 0 0 Z " fill="#051130" transform="translate(323,392)"/>
<path d="M0 0 C0.99 0 1.98 0 3 0 C8.86613491 6.39694526 13.64714881 14.88365769 14.25 23.625 C14.1675 24.40875 14.085 25.1925 14 26 C13.34 25.67 12.68 25.34 12 25 C11.7525 23.88625 11.505 22.7725 11.25 21.625 C9.45207603 13.69130374 4.63206666 6.59178717 0 0 Z " fill="#04102D" transform="translate(908,477)"/>
<path d="M0 0 C1.03253906 0.01353516 1.03253906 0.01353516 2.0859375 0.02734375 C3.76577838 0.05067487 5.44543746 0.08653674 7.125 0.125 C7.125 0.455 7.125 0.785 7.125 1.125 C6.0628125 1.22296875 5.000625 1.3209375 3.90625 1.421875 C-7.05071493 2.46447963 -7.05071493 2.46447963 -16.875 7.125 C-17.54402344 7.57746094 -18.21304688 8.02992188 -18.90234375 8.49609375 C-20.58418814 9.67171963 -22.23340141 10.89380106 -23.875 12.125 C-22.48522576 8.84910358 -20.97620808 7.11077808 -18.125 5 C-17.47015625 4.50242187 -16.8153125 4.00484375 -16.140625 3.4921875 C-10.9009388 0.3303079 -6.00588999 -0.15131118 0 0 Z " fill="#020920" transform="translate(803.875,462.875)"/>
<path d="M0 0 C2.04159095 -0.0272616 4.08328963 -0.04651345 6.125 -0.0625 C7.26195312 -0.07410156 8.39890625 -0.08570313 9.5703125 -0.09765625 C12.8129156 -0.005327 15.81932612 0.38610094 19 1 C18.67 2.32 18.34 3.64 18 5 C18 4.01 18 3.02 18 2 C17.01 2.495 17.01 2.495 16 3 C14.55151418 3.08342159 13.09929131 3.10732861 11.6484375 3.09765625 C10.79765625 3.09443359 9.946875 3.09121094 9.0703125 3.08789062 C8.18085937 3.07951172 7.29140625 3.07113281 6.375 3.0625 C5.4778125 3.05798828 4.580625 3.05347656 3.65625 3.04882812 C1.43743352 3.03702591 -0.78125018 3.02056155 -3 3 C-2.01 2.67 -1.02 2.34 0 2 C0 1.34 0 0.68 0 0 Z " fill="#041230" transform="translate(707,464)"/>
<path d="M0 0 C2.53053791 2.53053791 3.73820681 5.43532814 5.25 8.625 C7.96607364 14.22973338 10.95358342 19.22730352 15 24 C7.41056335 20.58883385 4.16993228 13.85893748 0.8828125 6.55078125 C0 4 0 4 0 0 Z " fill="#030C23" transform="translate(824,529)"/>
<path d="M0 0 C9.70181004 0.44915787 16.46198617 4.03240572 24 10 C24 10.66 24 11.32 24 12 C20.52676907 10.73314962 17.78147502 9.25163168 14.8125 7.0625 C10.14356339 3.84769348 5.4800704 2.30423387 0 1 C0 0.67 0 0.34 0 0 Z " fill="#040F2E" transform="translate(884,464)"/>
<path d="M0 0 C0.33 0 0.66 0 1 0 C1.33 3.96 1.66 7.92 2 12 C2.66 11.01 3.32 10.02 4 9 C4.66 9.33 5.32 9.66 6 10 C4.1875 13 4.1875 13 2 16 C1.01 16 0.02 16 -1 16 C-1.02725341 14.2709226 -1.04650987 12.54171824 -1.0625 10.8125 C-1.07410156 9.84957031 -1.08570313 8.88664062 -1.09765625 7.89453125 C-1.00486622 5.14423487 -0.62111685 2.67520409 0 0 Z " fill="#031130" transform="translate(774,467)"/>
<path d="M0 0 C0.66 0.33 1.32 0.66 2 1 C-3.16678053 5.68239486 -8.50384902 8.17511743 -15.5 8.1875 C-16.655 8.125625 -17.81 8.06375 -19 8 C-19 7.67 -19 7.34 -19 7 C-17.72125 6.773125 -16.4425 6.54625 -15.125 6.3125 C-10.31082325 5.27489614 -6.352688 3.30704889 -2.06640625 0.92578125 C-1.38449219 0.62027344 -0.70257813 0.31476563 0 0 Z " fill="#05102E" transform="translate(328,448)"/>
<path d="M0 0 C15.81816731 -0.64224138 15.81816731 -0.64224138 21.9375 4.6875 C22.4634375 5.3371875 22.4634375 5.3371875 23 6 C19.95830108 5.53913653 17.67021025 4.84170092 14.875 3.5 C10.14625496 1.35057044 5.12310824 1.2686621 0 1 C0 0.67 0 0.34 0 0 Z " fill="#030C23" transform="translate(868,482)"/>
<path d="M0 0 C2.19050021 0.09017996 4.378466 0.24666208 6.5625 0.4375 C7.76003906 0.53933594 8.95757813 0.64117187 10.19140625 0.74609375 C11.11824219 0.82988281 12.04507813 0.91367187 13 1 C12.67 1.66 12.34 2.32 12 3 C10.20866022 3.05391993 8.41686101 3.09275571 6.625 3.125 C5.62726562 3.14820313 4.62953125 3.17140625 3.6015625 3.1953125 C1 3 1 3 -1 1 C-0.67 0.67 -0.34 0.34 0 0 Z " fill="#04102B" transform="translate(761,464)"/>
<path d="M0 0 C2.02910711 0.25327449 4.04962145 0.57730068 6.0625 0.9375 C7.16722656 1.13214844 8.27195312 1.32679688 9.41015625 1.52734375 C10.69212891 1.76130859 10.69212891 1.76130859 12 2 C12 2.66 12 3.32 12 4 C8.04 4 4.08 4 0 4 C-0.33 3.01 -0.66 2.02 -1 1 C-0.67 0.67 -0.34 0.34 0 0 Z " fill="#071230" transform="translate(706,448)"/>
<path d="M0 0 C1.18851562 0.10183594 2.37703125 0.20367187 3.6015625 0.30859375 C4.51679688 0.39238281 5.43203125 0.47617187 6.375 0.5625 C6.375 1.2225 6.375 1.8825 6.375 2.5625 C4.43780622 2.61656122 2.50018079 2.65532025 0.5625 2.6875 C-0.51644531 2.71070313 -1.59539062 2.73390625 -2.70703125 2.7578125 C-5.625 2.5625 -5.625 2.5625 -8.625 0.5625 C-5.68113377 -0.90943312 -3.25109964 -0.28686173 0 0 Z " fill="#061333" transform="translate(309.625,387.4375)"/>
<path d="M0 0 C1.1055189 0.93590504 2.20935453 1.87379858 3.3125 2.8125 C3.92738281 3.33457031 4.54226563 3.85664062 5.17578125 4.39453125 C6.85424679 5.87172469 8.43882034 7.40039131 10 9 C7 9 7 9 5.17578125 7.5390625 C4.56089844 6.90742187 3.94601562 6.27578125 3.3125 5.625 C2.68988281 4.99851562 2.06726563 4.37203125 1.42578125 3.7265625 C0 2 0 2 0 0 Z " fill="#04102E" transform="translate(295,550)"/>
<path d="M0 0 C2.63249349 2.45699392 4.78137264 4.56568654 6 8 C5.67 8.99 5.34 9.98 5 11 C4.15841464 9.73461631 3.32700252 8.46246221 2.5 7.1875 C1.80390625 6.12595703 1.80390625 6.12595703 1.09375 5.04296875 C0 3 0 3 0 0 Z " fill="#04102E" transform="translate(892,489)"/>
<path d="M0 0 C2.37783838 2.37783838 2.59009208 3.72073665 3 7 C2.67 7.66 2.34 8.32 2 9 C1.01 8.67 0.02 8.34 -1 8 C-0.67 5.36 -0.34 2.72 0 0 Z " fill="#071232" transform="translate(319,541)"/>
<path d="M0 0 C0.33 0.99 0.66 1.98 1 3 C-1.64 4.98 -4.28 6.96 -7 9 C-5.04783565 5.09567131 -3.12613393 2.96160056 0 0 Z " fill="#060E2A" transform="translate(316,551)"/>
<path d="M0 0 C0.33 0 0.66 0 1 0 C1 1.65 1 3.3 1 5 C0.67 5 0.34 5 0 5 C0 3.35 0 1.7 0 0 Z " fill="#10275D" transform="translate(548,475)"/>
<path d="M0 0 C3 1 3 1 3 1 Z " fill="#102555" transform="translate(592,476)"/>
<path d="M0 0 C3 1 3 1 3 1 Z " fill="#0F285D" transform="translate(893,464)"/>
<path d="M0 0 C3 1 3 1 3 1 Z " fill="#10295F" transform="translate(553,421)"/>
<path d="M0 0 C3 1 3 1 3 1 Z " fill="#0E50DE" transform="translate(197,336)"/>
<path d="M0 0 C3 1 3 1 3 1 Z " fill="#0E4FDF" transform="translate(193,336)"/>
<path d="" fill="#48484B" transform="translate(0,0)"/>
<path d="M0 0 C2 1 2 1 2 1 Z " fill="#444446" transform="translate(948,997)"/>
<path d="M0 0 C2 1 2 1 2 1 Z " fill="#37383B" transform="translate(1090,955)"/>
<path d="" fill="#1053EF" transform="translate(0,0)"/>
<path d="" fill="#1056F4" transform="translate(0,0)"/>
<path d="" fill="#1149C8" transform="translate(0,0)"/>
<path d="M0 0 C2 1 2 1 2 1 Z " fill="#102654" transform="translate(856,565)"/>
<path d="" fill="#0C224C" transform="translate(0,0)"/>
<path d="" fill="#0E52E5" transform="translate(0,0)"/>
<path d="" fill="#0C55F1" transform="translate(0,0)"/>
<path d="" fill="#11275D" transform="translate(0,0)"/>
<path d="" fill="#11275D" transform="translate(0,0)"/>
<path d="" fill="#0E2454" transform="translate(0,0)"/>
<path d="" fill="#102452" transform="translate(0,0)"/>
<path d="M0 0 C2 1 2 1 2 1 Z " fill="#10285B" transform="translate(890,524)"/>
<path d="M0 0 C2 1 2 1 2 1 Z " fill="#102559" transform="translate(886,524)"/>
<path d="" fill="#10295D" transform="translate(0,0)"/>
<path d="" fill="#0F2654" transform="translate(0,0)"/>
<path d="" fill="#0E2655" transform="translate(0,0)"/>
<path d="" fill="#0F2452" transform="translate(0,0)"/>
<path d="" fill="#0F2452" transform="translate(0,0)"/>
<path d="" fill="#10285E" transform="translate(0,0)"/>
<path d="" fill="#0F2554" transform="translate(0,0)"/>
<path d="" fill="#0F2655" transform="translate(0,0)"/>
<path d="" fill="#0E2554" transform="translate(0,0)"/>
<path d="M0 0 C2 1 2 1 2 1 Z " fill="#095BFB" transform="translate(1301,487)"/>
<path d="" fill="#11285E" transform="translate(0,0)"/>
<path d="M0 0 C2 1 2 1 2 1 Z " fill="#0E2856" transform="translate(864,486)"/>
<path d="" fill="#0F2554" transform="translate(0,0)"/>
<path d="" fill="#11285D" transform="translate(0,0)"/>
<path d="" fill="#134ACC" transform="translate(0,0)"/>
<path d="" fill="#0859FA" transform="translate(0,0)"/>
<path d="M0 0 C2 1 2 1 2 1 Z " fill="#102758" transform="translate(642,476)"/>
<path d="M0 0 C2 1 2 1 2 1 Z " fill="#102656" transform="translate(588,476)"/>
<path d="M0 0 C2 1 2 1 2 1 Z " fill="#102758" transform="translate(584,476)"/>
<path d="" fill="#11285F" transform="translate(0,0)"/>
<path d="" fill="#0F2552" transform="translate(0,0)"/>
<path d="M0 0 C2 1 2 1 2 1 Z " fill="#142F77" transform="translate(312,469)"/>
<path d="" fill="#11275E" transform="translate(0,0)"/>
<path d="" fill="#11285E" transform="translate(0,0)"/>
<path d="" fill="#11295E" transform="translate(0,0)"/>
<path d="M0 0 C2 1 2 1 2 1 Z " fill="#173484" transform="translate(278,447)"/>
<path d="" fill="#0F2552" transform="translate(0,0)"/>
<path d="" fill="#0E2355" transform="translate(0,0)"/>
<path d="" fill="#11285E" transform="translate(0,0)"/>
<path d="" fill="#0F56F0" transform="translate(0,0)"/>
<path d="M0 0 C2 1 2 1 2 1 Z " fill="#0E50DB" transform="translate(1091,421)"/>
<path d="M0 0 C2 1 2 1 2 1 Z " fill="#0E2554" transform="translate(655,421)"/>
<path d="M0 0 C2 1 2 1 2 1 Z " fill="#0F2452" transform="translate(648,421)"/>
<path d="M0 0 C2 1 2 1 2 1 Z " fill="#153983" transform="translate(342,415)"/>
<path d="" fill="#1056EE" transform="translate(0,0)"/>
<path d="" fill="#0E55ED" transform="translate(0,0)"/>
<path d="M0 0 C2 1 2 1 2 1 Z " fill="#0B4FE2" transform="translate(393,344)"/>
<path d="" fill="#4A4B4B" transform="translate(0,0)"/>
<path d="" fill="#4A4B4D" transform="translate(0,0)"/>
<path d="" fill="#49484B" transform="translate(0,0)"/>
<path d="" fill="#47484B" transform="translate(0,0)"/>
<path d="" fill="#47494A" transform="translate(0,0)"/>
<path d="" fill="#4A494E" transform="translate(0,0)"/>
<path d="" fill="#48484B" transform="translate(0,0)"/>
<path d="" fill="#484749" transform="translate(0,0)"/>
<path d="" fill="#46484B" transform="translate(0,0)"/>
<path d="" fill="#494A4B" transform="translate(0,0)"/>
<path d="" fill="#484B4A" transform="translate(0,0)"/>
<path d="" fill="#47484A" transform="translate(0,0)"/>
<path d="" fill="#484A4A" transform="translate(0,0)"/>
<path d="" fill="#454849" transform="translate(0,0)"/>
<path d="" fill="#484848" transform="translate(0,0)"/>
<path d="" fill="#474748" transform="translate(0,0)"/>
<path d="" fill="#48494B" transform="translate(0,0)"/>
<path d="" fill="#49484B" transform="translate(0,0)"/>
<path d="" fill="#474749" transform="translate(0,0)"/>
<path d="" fill="#464749" transform="translate(0,0)"/>
<path d="" fill="#464747" transform="translate(0,0)"/>
<path d="" fill="#46484A" transform="translate(0,0)"/>
<path d="" fill="#474748" transform="translate(0,0)"/>
<path d="" fill="#464748" transform="translate(0,0)"/>
<path d="" fill="#474847" transform="translate(0,0)"/>
<path d="" fill="#474749" transform="translate(0,0)"/>
<path d="" fill="#48494A" transform="translate(0,0)"/>
<path d="" fill="#464649" transform="translate(0,0)"/>
<path d="" fill="#474948" transform="translate(0,0)"/>
<path d="" fill="#464649" transform="translate(0,0)"/>
<path d="" fill="#48494B" transform="translate(0,0)"/>
<path d="" fill="#535252" transform="translate(0,0)"/>
<path d="" fill="#444648" transform="translate(0,0)"/>
<path d="" fill="#47484A" transform="translate(0,0)"/>
<path d="" fill="#474649" transform="translate(0,0)"/>
<path d="" fill="#464849" transform="translate(0,0)"/>
<path d="" fill="#474548" transform="translate(0,0)"/>
<path d="" fill="#454748" transform="translate(0,0)"/>
<path d="" fill="#454646" transform="translate(0,0)"/>
<path d="" fill="#454547" transform="translate(0,0)"/>
<path d="" fill="#464747" transform="translate(0,0)"/>
<path d="" fill="#434447" transform="translate(0,0)"/>
<path d="" fill="#464648" transform="translate(0,0)"/>
<path d="" fill="#464547" transform="translate(0,0)"/>
<path d="" fill="#444445" transform="translate(0,0)"/>
<path d="" fill="#464648" transform="translate(0,0)"/>
<path d="" fill="#444649" transform="translate(0,0)"/>
<path d="" fill="#434445" transform="translate(0,0)"/>
<path d="" fill="#454147" transform="translate(0,0)"/>
<path d="" fill="#454647" transform="translate(0,0)"/>
<path d="" fill="#444545" transform="translate(0,0)"/>
<path d="" fill="#434447" transform="translate(0,0)"/>
<path d="" fill="#404344" transform="translate(0,0)"/>
<path d="" fill="#424143" transform="translate(0,0)"/>
<path d="" fill="#444346" transform="translate(0,0)"/>
<path d="" fill="#434245" transform="translate(0,0)"/>
<path d="" fill="#404345" transform="translate(0,0)"/>
<path d="" fill="#414045" transform="translate(0,0)"/>
<path d="" fill="#434444" transform="translate(0,0)"/>
<path d="" fill="#424345" transform="translate(0,0)"/>
<path d="" fill="#3E4043" transform="translate(0,0)"/>
<path d="" fill="#404042" transform="translate(0,0)"/>
<path d="" fill="#424045" transform="translate(0,0)"/>
<path d="" fill="#404144" transform="translate(0,0)"/>
<path d="" fill="#414043" transform="translate(0,0)"/>
<path d="" fill="#404143" transform="translate(0,0)"/>
<path d="" fill="#3F4242" transform="translate(0,0)"/>
<path d="" fill="#404041" transform="translate(0,0)"/>
<path d="" fill="#414242" transform="translate(0,0)"/>
<path d="" fill="#3E3F42" transform="translate(0,0)"/>
<path d="" fill="#3F4141" transform="translate(0,0)"/>
<path d="" fill="#3E4142" transform="translate(0,0)"/>
<path d="" fill="#3C3F40" transform="translate(0,0)"/>
<path d="" fill="#3F3F41" transform="translate(0,0)"/>
<path d="" fill="#3C3D3F" transform="translate(0,0)"/>
<path d="" fill="#3A3D3F" transform="translate(0,0)"/>
<path d="" fill="#3B3C3F" transform="translate(0,0)"/>
<path d="" fill="#3B3C3E" transform="translate(0,0)"/>
<path d="" fill="#3C3D3F" transform="translate(0,0)"/>
<path d="" fill="#3C3D3F" transform="translate(0,0)"/>
<path d="" fill="#3C3D3F" transform="translate(0,0)"/>
<path d="" fill="#393A3D" transform="translate(0,0)"/>
<path d="" fill="#3A3C3E" transform="translate(0,0)"/>
<path d="" fill="#3A3C3D" transform="translate(0,0)"/>
<path d="" fill="#3A3A3C" transform="translate(0,0)"/>
<path d="" fill="#39393B" transform="translate(0,0)"/>
<path d="" fill="#393A3E" transform="translate(0,0)"/>
<path d="" fill="#3A3A3B" transform="translate(0,0)"/>
<path d="" fill="#393B3B" transform="translate(0,0)"/>
<path d="" fill="#383A3D" transform="translate(0,0)"/>
<path d="" fill="#36383A" transform="translate(0,0)"/>
<path d="" fill="#38393C" transform="translate(0,0)"/>
<path d="" fill="#38383A" transform="translate(0,0)"/>
<path d="" fill="#353638" transform="translate(0,0)"/>
<path d="" fill="#373839" transform="translate(0,0)"/>
<path d="" fill="#35363A" transform="translate(0,0)"/>
<path d="" fill="#363838" transform="translate(0,0)"/>
<path d="" fill="#35373A" transform="translate(0,0)"/>
<path d="" fill="#323537" transform="translate(0,0)"/>
<path d="" fill="#353638" transform="translate(0,0)"/>
<path d="" fill="#323535" transform="translate(0,0)"/>
<path d="" fill="#323435" transform="translate(0,0)"/>
<path d="" fill="#343438" transform="translate(0,0)"/>
<path d="" fill="#343537" transform="translate(0,0)"/>
<path d="" fill="#343537" transform="translate(0,0)"/>
<path d="" fill="#303334" transform="translate(0,0)"/>
<path d="" fill="#333336" transform="translate(0,0)"/>
<path d="" fill="#313334" transform="translate(0,0)"/>
<path d="" fill="#313133" transform="translate(0,0)"/>
<path d="" fill="#2F3133" transform="translate(0,0)"/>
<path d="" fill="#2F3133" transform="translate(0,0)"/>
<path d="" fill="#313234" transform="translate(0,0)"/>
<path d="" fill="#2C3032" transform="translate(0,0)"/>
<path d="" fill="#2E2E2F" transform="translate(0,0)"/>
<path d="" fill="#2F2E33" transform="translate(0,0)"/>
<path d="" fill="#2F3033" transform="translate(0,0)"/>
<path d="" fill="#303031" transform="translate(0,0)"/>
<path d="" fill="#2E3131" transform="translate(0,0)"/>
<path d="" fill="#2E2F2F" transform="translate(0,0)"/>
<path d="" fill="#2E2E30" transform="translate(0,0)"/>
<path d="" fill="#2D2D32" transform="translate(0,0)"/>
<path d="" fill="#2D2F30" transform="translate(0,0)"/>
<path d="" fill="#2A2D2E" transform="translate(0,0)"/>
<path d="" fill="#2B2B2D" transform="translate(0,0)"/>
<path d="" fill="#2B2D30" transform="translate(0,0)"/>
<path d="" fill="#2D2E30" transform="translate(0,0)"/>
<path d="" fill="#2B2B30" transform="translate(0,0)"/>
<path d="" fill="#2D2D2F" transform="translate(0,0)"/>
<path d="" fill="#2D2E30" transform="translate(0,0)"/>
<path d="" fill="#2A2C2B" transform="translate(0,0)"/>
<path d="" fill="#292B2F" transform="translate(0,0)"/>
<path d="" fill="#292A2C" transform="translate(0,0)"/>
<path d="" fill="#29292D" transform="translate(0,0)"/>
<path d="" fill="#2A282B" transform="translate(0,0)"/>
<path d="" fill="#242728" transform="translate(0,0)"/>
<path d="" fill="#252729" transform="translate(0,0)"/>
<path d="" fill="#242728" transform="translate(0,0)"/>
<path d="" fill="#212426" transform="translate(0,0)"/>
<path d="" fill="#242426" transform="translate(0,0)"/>
<path d="" fill="#211F23" transform="translate(0,0)"/>
<path d="" fill="#1E1D22" transform="translate(0,0)"/>
<path d="" fill="#1F2024" transform="translate(0,0)"/>
<path d="" fill="#1F2024" transform="translate(0,0)"/>
<path d="" fill="#1E2121" transform="translate(0,0)"/>
<path d="" fill="#1F2023" transform="translate(0,0)"/>
<path d="" fill="#1D1E1F" transform="translate(0,0)"/>
<path d="" fill="#1C1D20" transform="translate(0,0)"/>
<path d="" fill="#1D1F20" transform="translate(0,0)"/>
<path d="" fill="#1D1C21" transform="translate(0,0)"/>
<path d="" fill="#1D1E21" transform="translate(0,0)"/>
<path d="" fill="#1C1E20" transform="translate(0,0)"/>
<path d="" fill="#181B1D" transform="translate(0,0)"/>
<path d="" fill="#191B1B" transform="translate(0,0)"/>
<path d="" fill="#16191A" transform="translate(0,0)"/>
<path d="" fill="#17181B" transform="translate(0,0)"/>
<path d="" fill="#111314" transform="translate(0,0)"/>
<path d="" fill="#121215" transform="translate(0,0)"/>
<path d="" fill="#101213" transform="translate(0,0)"/>
<path d="" fill="#0F1014" transform="translate(0,0)"/>
<path d="" fill="#101215" transform="translate(0,0)"/>
<path d="" fill="#0E1011" transform="translate(0,0)"/>
<path d="" fill="#0D1013" transform="translate(0,0)"/>
<path d="" fill="#0A0C0D" transform="translate(0,0)"/>
<path d="" fill="#08090F" transform="translate(0,0)"/>
<path d="" fill="#05070A" transform="translate(0,0)"/>
<path d="" fill="#07060B" transform="translate(0,0)"/>
<path d="" fill="#06080B" transform="translate(0,0)"/>
<path d="" fill="#020002" transform="translate(0,0)"/>
<path d="" fill="#030508" transform="translate(0,0)"/>
<path d="" fill="#000104" transform="translate(0,0)"/>
<path d="" fill="#000204" transform="translate(0,0)"/>
<path d="" fill="#02050C" transform="translate(0,0)"/>
<path d="" fill="#000103" transform="translate(0,0)"/>
<path d="" fill="#010406" transform="translate(0,0)"/>
<path d="" fill="#010511" transform="translate(0,0)"/>
<path d="" fill="#010007" transform="translate(0,0)"/>
<path d="" fill="#01060F" transform="translate(0,0)"/>
<path d="" fill="#020613" transform="translate(0,0)"/>
<path d="" fill="#030D1E" transform="translate(0,0)"/>
<path d="" fill="#010611" transform="translate(0,0)"/>
<path d="" fill="#000106" transform="translate(0,0)"/>
<path d="" fill="#00000A" transform="translate(0,0)"/>
<path d="" fill="#010814" transform="translate(0,0)"/>
<path d="" fill="#000207" transform="translate(0,0)"/>
<path d="" fill="#010817" transform="translate(0,0)"/>
<path d="" fill="#02091A" transform="translate(0,0)"/>
<path d="" fill="#00040A" transform="translate(0,0)"/>
<path d="" fill="#030D21" transform="translate(0,0)"/>
<path d="" fill="#000A1E" transform="translate(0,0)"/>
<path d="" fill="#000714" transform="translate(0,0)"/>
<path d="" fill="#000A1B" transform="translate(0,0)"/>
<path d="" fill="#000918" transform="translate(0,0)"/>
<path d="" fill="#07163F" transform="translate(0,0)"/>
<path d="" fill="#000A1D" transform="translate(0,0)"/>
<path d="" fill="#010C21" transform="translate(0,0)"/>
<path d="" fill="#010E26" transform="translate(0,0)"/>
<path d="" fill="#0B205A" transform="translate(0,0)"/>
<path d="" fill="#1549D4" transform="translate(0,0)"/>
<path d="" fill="#134BD4" transform="translate(0,0)"/>
<path d="" fill="#041738" transform="translate(0,0)"/>
<path d="" fill="#124DDC" transform="translate(0,0)"/>
<path d="" fill="#124CD9" transform="translate(0,0)"/>
<path d="" fill="#124CD7" transform="translate(0,0)"/>
<path d="" fill="#134CD5" transform="translate(0,0)"/>
<path d="" fill="#144DDB" transform="translate(0,0)"/>
<path d="" fill="#124DDB" transform="translate(0,0)"/>
<path d="" fill="#144CD8" transform="translate(0,0)"/>
<path d="" fill="#081B42" transform="translate(0,0)"/>
<path d="" fill="#154BD8" transform="translate(0,0)"/>
<path d="" fill="#11265B" transform="translate(0,0)"/>
<path d="" fill="#1351E4" transform="translate(0,0)"/>
<path d="" fill="#0F4EE5" transform="translate(0,0)"/>
<path d="" fill="#134FE1" transform="translate(0,0)"/>
<path d="" fill="#1152EC" transform="translate(0,0)"/>
<path d="" fill="#0F2962" transform="translate(0,0)"/>
<path d="" fill="#0C1941" transform="translate(0,0)"/>
<path d="" fill="#1054F2" transform="translate(0,0)"/>
<path d="" fill="#1055F3" transform="translate(0,0)"/>
<path d="" fill="#102F75" transform="translate(0,0)"/>
<path d="" fill="#162F71" transform="translate(0,0)"/>
<path d="" fill="#12347E" transform="translate(0,0)"/>
<path d="" fill="#0D4EE1" transform="translate(0,0)"/>
<path d="" fill="#0D2149" transform="translate(0,0)"/>
<path d="" fill="#1057F5" transform="translate(0,0)"/>
<path d="" fill="#124CCE" transform="translate(0,0)"/>
<path d="" fill="#1247C1" transform="translate(0,0)"/>
<path d="" fill="#112456" transform="translate(0,0)"/>
<path d="" fill="#0F2554" transform="translate(0,0)"/>
<path d="" fill="#1050DC" transform="translate(0,0)"/>
<path d="" fill="#104DDA" transform="translate(0,0)"/>
<path d="" fill="#124ACA" transform="translate(0,0)"/>
<path d="" fill="#153685" transform="translate(0,0)"/>
<path d="" fill="#112658" transform="translate(0,0)"/>
<path d="" fill="#102554" transform="translate(0,0)"/>
<path d="" fill="#0E214E" transform="translate(0,0)"/>
<path d="" fill="#0C214C" transform="translate(0,0)"/>
<path d="" fill="#10214E" transform="translate(0,0)"/>
<path d="" fill="#0E2050" transform="translate(0,0)"/>
<path d="" fill="#104ED6" transform="translate(0,0)"/>
<path d="" fill="#104CD5" transform="translate(0,0)"/>
<path d="" fill="#134CD0" transform="translate(0,0)"/>
<path d="" fill="#10214B" transform="translate(0,0)"/>
<path d="" fill="#0F2751" transform="translate(0,0)"/>
<path d="" fill="#124FD9" transform="translate(0,0)"/>
<path d="" fill="#0D1F4B" transform="translate(0,0)"/>
<path d="" fill="#12295F" transform="translate(0,0)"/>
<path d="" fill="#1652EC" transform="translate(0,0)"/>
<path d="" fill="#0F204B" transform="translate(0,0)"/>
<path d="" fill="#0E204F" transform="translate(0,0)"/>
<path d="" fill="#16378A" transform="translate(0,0)"/>
<path d="" fill="#1157F4" transform="translate(0,0)"/>
<path d="" fill="#0E2959" transform="translate(0,0)"/>
<path d="" fill="#0C56EE" transform="translate(0,0)"/>
<path d="" fill="#122554" transform="translate(0,0)"/>
<path d="" fill="#112451" transform="translate(0,0)"/>
<path d="" fill="#173580" transform="translate(0,0)"/>
<path d="" fill="#163686" transform="translate(0,0)"/>
<path d="" fill="#1157F5" transform="translate(0,0)"/>
<path d="" fill="#0D55EB" transform="translate(0,0)"/>
<path d="" fill="#163B90" transform="translate(0,0)"/>
<path d="" fill="#0F2453" transform="translate(0,0)"/>
<path d="" fill="#1C41A7" transform="translate(0,0)"/>
<path d="" fill="#122756" transform="translate(0,0)"/>
<path d="" fill="#0D5AF3" transform="translate(0,0)"/>
<path d="" fill="#102654" transform="translate(0,0)"/>
<path d="" fill="#19377D" transform="translate(0,0)"/>
<path d="" fill="#163C93" transform="translate(0,0)"/>
<path d="" fill="#0B5BFD" transform="translate(0,0)"/>
<path d="" fill="#112B5E" transform="translate(0,0)"/>
<path d="" fill="#0C57F2" transform="translate(0,0)"/>
<path d="" fill="#0F2553" transform="translate(0,0)"/>
<path d="" fill="#0E51E2" transform="translate(0,0)"/>
<path d="" fill="#0F2757" transform="translate(0,0)"/>
<path d="" fill="#0C57F5" transform="translate(0,0)"/>
<path d="" fill="#0E2355" transform="translate(0,0)"/>
<path d="" fill="#1157F6" transform="translate(0,0)"/>
<path d="" fill="#0C4EE2" transform="translate(0,0)"/>
<path d="" fill="#102553" transform="translate(0,0)"/>
<path d="" fill="#0E2A59" transform="translate(0,0)"/>
<path d="" fill="#11295E" transform="translate(0,0)"/>
<path d="" fill="#183583" transform="translate(0,0)"/>
<path d="" fill="#1059F7" transform="translate(0,0)"/>
<path d="" fill="#0C57F7" transform="translate(0,0)"/>
<path d="" fill="#112755" transform="translate(0,0)"/>
<path d="" fill="#0D2455" transform="translate(0,0)"/>
<path d="" fill="#102857" transform="translate(0,0)"/>
<path d="" fill="#122758" transform="translate(0,0)"/>
<path d="" fill="#1D42A6" transform="translate(0,0)"/>
<path d="" fill="#0F285F" transform="translate(0,0)"/>
<path d="" fill="#0E295C" transform="translate(0,0)"/>
<path d="" fill="#0F2658" transform="translate(0,0)"/>
<path d="" fill="#0E2859" transform="translate(0,0)"/>
<path d="" fill="#122958" transform="translate(0,0)"/>
<path d="" fill="#0F2555" transform="translate(0,0)"/>
<path d="" fill="#153480" transform="translate(0,0)"/>
<path d="" fill="#1849C2" transform="translate(0,0)"/>
<path d="" fill="#15326D" transform="translate(0,0)"/>
<path d="" fill="#173782" transform="translate(0,0)"/>
<path d="" fill="#122555" transform="translate(0,0)"/>
<path d="" fill="#1357F5" transform="translate(0,0)"/>
<path d="" fill="#0959FB" transform="translate(0,0)"/>
<path d="" fill="#1757EF" transform="translate(0,0)"/>
<path d="" fill="#0D2656" transform="translate(0,0)"/>
<path d="" fill="#132859" transform="translate(0,0)"/>
<path d="" fill="#11275E" transform="translate(0,0)"/>
<path d="" fill="#0959FA" transform="translate(0,0)"/>
<path d="" fill="#12295E" transform="translate(0,0)"/>
<path d="" fill="#183E9A" transform="translate(0,0)"/>
<path d="" fill="#13295E" transform="translate(0,0)"/>
<path d="" fill="#0A59F9" transform="translate(0,0)"/>
<path d="" fill="#0D2553" transform="translate(0,0)"/>
<path d="" fill="#112A56" transform="translate(0,0)"/>
<path d="" fill="#133580" transform="translate(0,0)"/>
<path d="" fill="#1156EB" transform="translate(0,0)"/>
<path d="" fill="#102956" transform="translate(0,0)"/>
<path d="" fill="#102858" transform="translate(0,0)"/>
<path d="" fill="#11295E" transform="translate(0,0)"/>
<path d="" fill="#0C2555" transform="translate(0,0)"/>
<path d="" fill="#0D2657" transform="translate(0,0)"/>
<path d="" fill="#11295F" transform="translate(0,0)"/>
<path d="" fill="#102655" transform="translate(0,0)"/>
<path d="" fill="#0F2653" transform="translate(0,0)"/>
<path d="" fill="#153379" transform="translate(0,0)"/>
<path d="" fill="#0750E4" transform="translate(0,0)"/>
<path d="" fill="#0F2455" transform="translate(0,0)"/>
<path d="" fill="#0A5CFB" transform="translate(0,0)"/>
<path d="" fill="#085BF9" transform="translate(0,0)"/>
<path d="" fill="#0F2759" transform="translate(0,0)"/>
<path d="" fill="#102655" transform="translate(0,0)"/>
<path d="" fill="#12275E" transform="translate(0,0)"/>
<path d="" fill="#122A57" transform="translate(0,0)"/>
<path d="" fill="#173679" transform="translate(0,0)"/>
<path d="" fill="#0D5DFB" transform="translate(0,0)"/>
<path d="" fill="#0F2759" transform="translate(0,0)"/>
<path d="" fill="#0F2659" transform="translate(0,0)"/>
<path d="" fill="#112B6B" transform="translate(0,0)"/>
<path d="" fill="#102859" transform="translate(0,0)"/>
<path d="" fill="#15337C" transform="translate(0,0)"/>
<path d="" fill="#0E2658" transform="translate(0,0)"/>
<path d="" fill="#102554" transform="translate(0,0)"/>
<path d="" fill="#16337B" transform="translate(0,0)"/>
<path d="" fill="#112654" transform="translate(0,0)"/>
<path d="" fill="#163579" transform="translate(0,0)"/>
<path d="" fill="#0759FA" transform="translate(0,0)"/>
<path d="" fill="#102557" transform="translate(0,0)"/>
<path d="" fill="#0F2854" transform="translate(0,0)"/>
<path d="" fill="#1746C6" transform="translate(0,0)"/>
<path d="" fill="#10275A" transform="translate(0,0)"/>
<path d="" fill="#112858" transform="translate(0,0)"/>
<path d="" fill="#102756" transform="translate(0,0)"/>
<path d="" fill="#12275A" transform="translate(0,0)"/>
<path d="" fill="#0E2554" transform="translate(0,0)"/>
<path d="" fill="#112755" transform="translate(0,0)"/>
<path d="" fill="#1455ED" transform="translate(0,0)"/>
<path d="" fill="#1347C0" transform="translate(0,0)"/>
<path d="" fill="#112957" transform="translate(0,0)"/>
<path d="" fill="#112963" transform="translate(0,0)"/>
<path d="" fill="#112757" transform="translate(0,0)"/>
<path d="" fill="#1647C2" transform="translate(0,0)"/>
<path d="" fill="#0958F7" transform="translate(0,0)"/>
<path d="" fill="#0A58F9" transform="translate(0,0)"/>
<path d="" fill="#112450" transform="translate(0,0)"/>
<path d="" fill="#112655" transform="translate(0,0)"/>
<path d="" fill="#16347E" transform="translate(0,0)"/>
<path d="" fill="#0F2452" transform="translate(0,0)"/>
<path d="" fill="#122960" transform="translate(0,0)"/>
<path d="" fill="#102552" transform="translate(0,0)"/>
<path d="" fill="#0C59F5" transform="translate(0,0)"/>
<path d="" fill="#102754" transform="translate(0,0)"/>
<path d="" fill="#1253E7" transform="translate(0,0)"/>
<path d="" fill="#0F285C" transform="translate(0,0)"/>
<path d="" fill="#112959" transform="translate(0,0)"/>
<path d="" fill="#0D2454" transform="translate(0,0)"/>
<path d="" fill="#12285E" transform="translate(0,0)"/>
<path d="" fill="#132D70" transform="translate(0,0)"/>
<path d="" fill="#11275D" transform="translate(0,0)"/>
<path d="" fill="#0B58F7" transform="translate(0,0)"/>
<path d="" fill="#143074" transform="translate(0,0)"/>
<path d="" fill="#102455" transform="translate(0,0)"/>
<path d="" fill="#11285E" transform="translate(0,0)"/>
<path d="" fill="#16307B" transform="translate(0,0)"/>
<path d="" fill="#0B57F4" transform="translate(0,0)"/>
<path d="" fill="#0B57F5" transform="translate(0,0)"/>
<path d="" fill="#0F2658" transform="translate(0,0)"/>
<path d="" fill="#193991" transform="translate(0,0)"/>
<path d="" fill="#163581" transform="translate(0,0)"/>
<path d="" fill="#1B388B" transform="translate(0,0)"/>
<path d="" fill="#12285E" transform="translate(0,0)"/>
<path d="" fill="#15337F" transform="translate(0,0)"/>
<path d="" fill="#11275D" transform="translate(0,0)"/>
<path d="" fill="#163887" transform="translate(0,0)"/>
<path d="" fill="#0B56F2" transform="translate(0,0)"/>
<path d="" fill="#15357E" transform="translate(0,0)"/>
<path d="" fill="#12295D" transform="translate(0,0)"/>
<path d="" fill="#163883" transform="translate(0,0)"/>
<path d="" fill="#112A5D" transform="translate(0,0)"/>
<path d="" fill="#0C224F" transform="translate(0,0)"/>
<path d="" fill="#0F224C" transform="translate(0,0)"/>
<path d="" fill="#122860" transform="translate(0,0)"/>
<path d="" fill="#0E4CD1" transform="translate(0,0)"/>
<path d="" fill="#0D52DB" transform="translate(0,0)"/>
<path d="" fill="#102553" transform="translate(0,0)"/>
<path d="" fill="#1055EF" transform="translate(0,0)"/>
<path d="" fill="#183786" transform="translate(0,0)"/>
<path d="" fill="#0E317A" transform="translate(0,0)"/>
<path d="" fill="#17367D" transform="translate(0,0)"/>
<path d="" fill="#133680" transform="translate(0,0)"/>
<path d="" fill="#1055ED" transform="translate(0,0)"/>
<path d="" fill="#193FA2" transform="translate(0,0)"/>
<path d="" fill="#17357F" transform="translate(0,0)"/>
<path d="" fill="#0F56EE" transform="translate(0,0)"/>
<path d="" fill="#17327A" transform="translate(0,0)"/>
<path d="" fill="#16367E" transform="translate(0,0)"/>
<path d="" fill="#0A265D" transform="translate(0,0)"/>
<path d="" fill="#173B9B" transform="translate(0,0)"/>
<path d="" fill="#1054EC" transform="translate(0,0)"/>
<path d="" fill="#082254" transform="translate(0,0)"/>
<path d="" fill="#163B97" transform="translate(0,0)"/>
<path d="" fill="#1254E8" transform="translate(0,0)"/>
<path d="" fill="#1152E7" transform="translate(0,0)"/>
<path d="" fill="#163992" transform="translate(0,0)"/>
<path d="" fill="#0A2868" transform="translate(0,0)"/>
<path d="" fill="#09245B" transform="translate(0,0)"/>
<path d="" fill="#1150E5" transform="translate(0,0)"/>
<path d="" fill="#1250DE" transform="translate(0,0)"/>
<path d="" fill="#04173C" transform="translate(0,0)"/>
<path d="" fill="#133385" transform="translate(0,0)"/>
<path d="" fill="#061639" transform="translate(0,0)"/>
<path d="" fill="#0F51DE" transform="translate(0,0)"/>
<path d="" fill="#0F50E3" transform="translate(0,0)"/>
<path d="" fill="#12317C" transform="translate(0,0)"/>
<path d="" fill="#0F50DE" transform="translate(0,0)"/>
<path d="" fill="#124EDD" transform="translate(0,0)"/>
<path d="" fill="#0C53DE" transform="translate(0,0)"/>
<path d="" fill="#0A50E0" transform="translate(0,0)"/>
<path d="" fill="#0F4EDD" transform="translate(0,0)"/>
<path d="" fill="#0F2457" transform="translate(0,0)"/>
<path d="" fill="#0E2664" transform="translate(0,0)"/>
<path d="" fill="#02112A" transform="translate(0,0)"/>
<path d="" fill="#0C1E47" transform="translate(0,0)"/>
<path d="" fill="#000B1C" transform="translate(0,0)"/>
<path d="" fill="#000715" transform="translate(0,0)"/>
<path d="" fill="#091D4A" transform="translate(0,0)"/>
<path d="" fill="#000712" transform="translate(0,0)"/>
<path d="" fill="#000815" transform="translate(0,0)"/>
<path d="" fill="#000510" transform="translate(0,0)"/>
<path d="" fill="#08183A" transform="translate(0,0)"/>
<path d="" fill="#010714" transform="translate(0,0)"/>
<path d="" fill="#09142E" transform="translate(0,0)"/>
<path d="" fill="#00040E" transform="translate(0,0)"/>
<path d="" fill="#08122A" transform="translate(0,0)"/>
<path d="" fill="#00030C" transform="translate(0,0)"/>
<path d="" fill="#00050F" transform="translate(0,0)"/>
<path d="" fill="#091126" transform="translate(0,0)"/>
<path d="" fill="#091222" transform="translate(0,0)"/>
<path d="" fill="#00030A" transform="translate(0,0)"/>
<path d="" fill="#000509" transform="translate(0,0)"/>
<path d="" fill="#02050C" transform="translate(0,0)"/>
<path d="" fill="#04070B" transform="translate(0,0)"/>
<path d="" fill="#02040A" transform="translate(0,0)"/>
<path d="" fill="#02070A" transform="translate(0,0)"/>
<path d="" fill="#060B16" transform="translate(0,0)"/>
<path d="" fill="#080B0F" transform="translate(0,0)"/>
<path d="" fill="#06090C" transform="translate(0,0)"/>
<path d="" fill="#0E0F11" transform="translate(0,0)"/>
<path d="" fill="#080C0C" transform="translate(0,0)"/>
<path d="" fill="#0A0C0D" transform="translate(0,0)"/>
<path d="" fill="#0B0E0E" transform="translate(0,0)"/>
<path d="" fill="#1E1F22" transform="translate(0,0)"/>
<path d="" fill="#0E1014" transform="translate(0,0)"/>
<path d="" fill="#202125" transform="translate(0,0)"/>
<path d="" fill="#0F1112" transform="translate(0,0)"/>
<path d="" fill="#171819" transform="translate(0,0)"/>
<path d="" fill="#262729" transform="translate(0,0)"/>
<path d="" fill="#151618" transform="translate(0,0)"/>
<path d="" fill="#1B1C1C" transform="translate(0,0)"/>
<path d="" fill="#171617" transform="translate(0,0)"/>
<path d="" fill="#2B2B2C" transform="translate(0,0)"/>
<path d="" fill="#2E2C2E" transform="translate(0,0)"/>
<path d="" fill="#171A1A" transform="translate(0,0)"/>
<path d="" fill="#222322" transform="translate(0,0)"/>
<path d="" fill="#373737" transform="translate(0,0)"/>
<path d="" fill="#1E2020" transform="translate(0,0)"/>
<path d="" fill="#39393C" transform="translate(0,0)"/>
<path d="" fill="#202322" transform="translate(0,0)"/>
<path d="" fill="#232327" transform="translate(0,0)"/>
<path d="" fill="#282628" transform="translate(0,0)"/>
<path d="" fill="#272A28" transform="translate(0,0)"/>
<path d="" fill="#3C3D3E" transform="translate(0,0)"/>
<path d="" fill="#222324" transform="translate(0,0)"/>
<path d="" fill="#232527" transform="translate(0,0)"/>
<path d="" fill="#2C2C2C" transform="translate(0,0)"/>
<path d="" fill="#282A29" transform="translate(0,0)"/>
<path d="" fill="#272727" transform="translate(0,0)"/>
<path d="" fill="#373637" transform="translate(0,0)"/>
<path d="" fill="#262829" transform="translate(0,0)"/>
<path d="" fill="#2A2A2C" transform="translate(0,0)"/>
<path d="" fill="#2A2B2A" transform="translate(0,0)"/>
<path d="" fill="#2F312F" transform="translate(0,0)"/>
<path d="" fill="#464647" transform="translate(0,0)"/>
<path d="" fill="#292B2A" transform="translate(0,0)"/>
<path d="" fill="#2C2C2F" transform="translate(0,0)"/>
<path d="" fill="#474748" transform="translate(0,0)"/>
<path d="" fill="#323333" transform="translate(0,0)"/>
<path d="" fill="#3B3C3C" transform="translate(0,0)"/>
<path d="" fill="#494A4B" transform="translate(0,0)"/>
<path d="" fill="#2A2C2D" transform="translate(0,0)"/>
<path d="" fill="#2F2F31" transform="translate(0,0)"/>
<path d="" fill="#353435" transform="translate(0,0)"/>
<path d="" fill="#3E3E3F" transform="translate(0,0)"/>
<path d="" fill="#464849" transform="translate(0,0)"/>
<path d="" fill="#4C4C4F" transform="translate(0,0)"/>
<path d="" fill="#4D4D4E" transform="translate(0,0)"/>
<path d="" fill="#2D2E2F" transform="translate(0,0)"/>
<path d="" fill="#333235" transform="translate(0,0)"/>
<path d="" fill="#383739" transform="translate(0,0)"/>
<path d="" fill="#2C2E2D" transform="translate(0,0)"/>
<path d="" fill="#2E3132" transform="translate(0,0)"/>
<path d="" fill="#343336" transform="translate(0,0)"/>
<path d="" fill="#3B393A" transform="translate(0,0)"/>
<path d="" fill="#393A3A" transform="translate(0,0)"/>
<path d="" fill="#545455" transform="translate(0,0)"/>
<path d="" fill="#313332" transform="translate(0,0)"/>
<path d="" fill="#373739" transform="translate(0,0)"/>
<path d="" fill="#3C3C3E" transform="translate(0,0)"/>
<path d="" fill="#414242" transform="translate(0,0)"/>
<path d="" fill="#3B3D3C" transform="translate(0,0)"/>
<path d="" fill="#333536" transform="translate(0,0)"/>
<path d="" fill="#39393C" transform="translate(0,0)"/>
<path d="" fill="#38393A" transform="translate(0,0)"/>
<path d="" fill="#333536" transform="translate(0,0)"/>
<path d="" fill="#3E3F3E" transform="translate(0,0)"/>
<path d="" fill="#5A5A5A" transform="translate(0,0)"/>
<path d="" fill="#353737" transform="translate(0,0)"/>
<path d="" fill="#3B3C3F" transform="translate(0,0)"/>
<path d="" fill="#414041" transform="translate(0,0)"/>
<path d="" fill="#4A494D" transform="translate(0,0)"/>
<path d="" fill="#555458" transform="translate(0,0)"/>
<path d="" fill="#36393A" transform="translate(0,0)"/>
<path d="" fill="#3D3D3F" transform="translate(0,0)"/>
<path d="" fill="#5B5B5F" transform="translate(0,0)"/>
<path d="" fill="#3C3D3D" transform="translate(0,0)"/>
<path d="" fill="#3B393A" transform="translate(0,0)"/>
</svg>
